<?xml version="1.0" encoding="UTF-8" standalone="no"?>
<!-- Created with Inkscape (http://www.inkscape.org/) -->

<svg
   xmlns:dc="http://purl.org/dc/elements/1.1/"
   xmlns:cc="http://creativecommons.org/ns#"
   xmlns:rdf="http://www.w3.org/1999/02/22-rdf-syntax-ns#"
   xmlns:svg="http://www.w3.org/2000/svg"
   xmlns="http://www.w3.org/2000/svg"
   xmlns:sodipodi="http://sodipodi.sourceforge.net/DTD/sodipodi-0.dtd"
   xmlns:inkscape="http://www.inkscape.org/namespaces/inkscape"
   width="320"
   height="400"
   id="svg2"
   version="1.1"
   inkscape:version="0.48.4 r9939"
   sodipodi:docname="950966fa-0e67-11e3-98a2-001b3875b29c-pseudo-code-Main.svg">
  <sodipodi:namedview
     id="base"
     pagecolor="#ffffff"
     bordercolor="#666666"
     borderopacity="1.0"
     inkscape:pageopacity="0.0"
     inkscape:pageshadow="2"
     inkscape:zoom="0.7"
     inkscape:cx="213.5426"
     inkscape:cy="213.15148"
     inkscape:document-units="px"
     inkscape:current-layer="layer1"
     showgrid="false"
     inkscape:window-width="895"
     inkscape:window-height="675"
     inkscape:window-x="30"
     inkscape:window-y="25"
     inkscape:window-maximized="0" />
  <defs
     id="defs4" />
  <metadata
     id="metadata7">
    <rdf:RDF>
      <cc:Work
         rdf:about="">
        <dc:format>image/svg+xml</dc:format>
        <dc:type
           rdf:resource="http://purl.org/dc/dcmitype/StillImage" />
        <dc:title></dc:title>
      </cc:Work>
    </rdf:RDF>
  </metadata>
  <g
     transform="translate(0,-652.36218)"
     id="layer1"
     inkscape:groupmode="layer"
     inkscape:label="Layer 1">
    <rect
       style="fill:#ffffff;stroke:#000000;stroke-width:0.75279647;stroke-linejoin:round;stroke-opacity:1"
       id="rect3005"
       width="71.318634"
       height="19.354345"
       x="15.590684"
       y="696.52429" />
    <path
       style="fill:#ffffff;stroke:#000000;stroke-width:0.91636944;stroke-linejoin:round;stroke-opacity:1"
       d="m 92.224347,851.27155 78.786323,0 0,25.96071 -78.786323,0 z"
       id="rect3005-1"
       inkscape:connector-curvature="0" />
    <rect
       style="fill:#ffffff;stroke:#000000;stroke-width:0.99133617;stroke-linejoin:round;stroke-opacity:1"
       id="rect3005-3"
       width="130.73421"
       height="18.309607"
       x="172.68892"
       y="707.54547" />
    <path
       sodipodi:type="inkscape:offset"
       inkscape:radius="0"
       inkscape:original="M 161.8125 788.53125 L 161.8125 805.34375 L 298.28125 805.34375 L 298.28125 788.53125 L 161.8125 788.53125 z "
       style="fill:#ffffff;stroke:#000000;stroke-width:0.97059113;stroke-linejoin:round;stroke-opacity:1"
       id="path3224"
       d="m 161.8125,788.53125 0,16.8125 136.46875,0 0,-16.8125 -136.46875,0 z"
       transform="translate(-77.70305,-52.379999)" />
    <rect
       transform="matrix(-0.70710678,-0.70710678,0.70710678,-0.70710678,0,0)"
       y="-513.93536"
       x="-551.22809"
       height="13.241187"
       width="13.327847"
       id="rect3822"
       style="fill:#ffffff;stroke:#000000;stroke-width:1;stroke-linejoin:round;stroke-opacity:1" />
    <rect
       transform="matrix(-0.70710678,-0.70710678,0.70710678,-0.70710678,0,0)"
       y="-432.3364"
       x="-717.58203"
       height="13.241187"
       width="13.327847"
       id="rect3822-3"
       style="fill:#ffffff;stroke:#000000;stroke-width:1;stroke-linejoin:round;stroke-opacity:1" />
    <text
       xml:space="preserve"
       style="font-size:40px;font-style:normal;font-weight:normal;line-height:125%;letter-spacing:0px;word-spacing:0px;fill:#000000;fill-opacity:1;stroke:none;font-family:Sans"
       x="18.214287"
       y="48.75"
       id="text3842"
       sodipodi:linespacing="125%"
       transform="translate(0,652.36218)"><tspan
         sodipodi:role="line"
         id="tspan3844" /></text>
    <flowRoot
       xml:space="preserve"
       id="flowRoot3846"
       style="fill:black;stroke:none;stroke-opacity:1;stroke-width:1px;stroke-linejoin:miter;stroke-linecap:butt;fill-opacity:1;font-family:Sans;font-style:normal;font-weight:normal;font-size:12px;line-height:125%;letter-spacing:0px;word-spacing:0px"><flowRegion
         id="flowRegion3848"><rect
           id="rect3850"
           width="49.285713"
           height="10"
           x="16.785715"
           y="46.42857"
           style="font-size:12px" /></flowRegion><flowPara
         id="flowPara3852" /></flowRoot>    <text
       xml:space="preserve"
       style="font-size:8px;font-style:normal;font-weight:normal;line-height:125%;letter-spacing:0px;word-spacing:0px;fill:#000000;fill-opacity:1;stroke:none;font-family:Sans"
       x="18.571428"
       y="52.142857"
       id="text3854"
       sodipodi:linespacing="125%"
       transform="translate(0,652.36218)"><tspan
         sodipodi:role="line"
         id="tspan3856"
         x="18.571428"
         y="52.142857">Type of Installer</tspan></text>
    <text
       xml:space="preserve"
       style="font-size:8px;font-style:normal;font-weight:normal;line-height:125%;letter-spacing:0px;word-spacing:0px;fill:#000000;fill-opacity:1;stroke:none;font-family:Sans"
       x="32.660625"
       y="732.03571"
       id="text3858"
       sodipodi:linespacing="125%"><tspan
         sodipodi:role="line"
         id="tspan3860"
         x="32.660625"
         y="732.03571">Pip installer</tspan></text>
    <text
       xml:space="preserve"
       style="font-size:8px;font-style:normal;font-weight:normal;line-height:125%;letter-spacing:0px;word-spacing:0px;fill:#000000;fill-opacity:1;stroke:none;font-family:Sans"
       x="33.928574"
       y="104.10714"
       id="text3862"
       sodipodi:linespacing="125%"
       transform="translate(0,652.36218)"><tspan
         sodipodi:role="line"
         id="tspan3864"
         x="33.928574"
         y="104.10714">Script</tspan></text>
    <path
       style="fill:none;stroke:#000000;stroke-width:1px;stroke-linecap:butt;stroke-linejoin:miter;stroke-opacity:1"
       d="M 26.25,81.785714 25.892857,63.571428"
       id="path3866"
       inkscape:connector-curvature="0"
       transform="translate(0,652.36218)" />
    <path
       style="font-size:medium;font-style:normal;font-variant:normal;font-weight:normal;font-stretch:normal;text-indent:0;text-align:start;text-decoration:none;line-height:normal;letter-spacing:normal;word-spacing:normal;text-transform:none;direction:ltr;block-progression:tb;writing-mode:lr-tb;text-anchor:start;baseline-shift:baseline;color:#000000;fill:#000000;fill-opacity:1;stroke:none;stroke-width:1px;marker:none;visibility:visible;display:inline;overflow:visible;enable-background:accumulate;font-family:Sans;-inkscape-font-specification:Sans"
       d="M 79 85.21875 L 79 86.8125 L 79.03125 90.375 C 78.62131 90.375 78.23826 90.41905 77.84375 90.40625 L 35.71875 90.75 L 35.71875 91.75 L 77.875 91.40625 L 77.875 91.375 C 78.23391 91.368861 78.578324 91.403331 79 91.40625 L 78.96875 94.9375 L 78.9375 96.3125 L 79.84375 95.28125 L 83.1875 91.375 L 83.28125 91.375 L 82.71875 90.59375 L 79.90625 86.53125 L 79 85.21875 z "
       transform="translate(0,652.36218)"
       id="path3868" />
    <path
       style="font-size:medium;font-style:normal;font-variant:normal;font-weight:normal;font-stretch:normal;text-indent:0;text-align:start;text-decoration:none;line-height:normal;letter-spacing:normal;word-spacing:normal;text-transform:none;direction:ltr;block-progression:tb;writing-mode:lr-tb;text-anchor:start;baseline-shift:baseline;color:#000000;fill:#000000;fill-opacity:1;stroke:none;stroke-width:1px;marker:none;visibility:visible;display:inline;overflow:visible;enable-background:accumulate;font-family:Sans;-inkscape-font-specification:Sans"
       d="M 25.625 100.75 L 25.625 153.40625 L 25.65625 153.40625 L 25.5 164.65625 L 25.5 165.15625 L 26 165.15625 L 86.9375 165.53125 L 86.9375 169.125 L 86.90625 170.5 L 87.8125 169.46875 L 91.15625 165.5625 L 91.25 165.5625 L 90.6875 164.78125 L 87.875 160.71875 L 86.96875 159.40625 L 86.96875 161 L 86.96875 164.53125 L 26.5 164.15625 L 26.6875 152.34375 L 26.625 152.34375 L 26.625 100.75 L 25.625 100.75 z "
       transform="translate(0,652.36218)"
       id="path3870" />
    <path
       style="font-size:medium;font-style:normal;font-variant:normal;font-weight:normal;font-stretch:normal;text-indent:0;text-align:start;text-decoration:none;line-height:normal;letter-spacing:normal;word-spacing:normal;text-transform:none;direction:ltr;block-progression:tb;writing-mode:lr-tb;text-anchor:start;baseline-shift:baseline;color:#000000;fill:#000000;fill-opacity:1;stroke:none;stroke-width:1px;marker:none;visibility:visible;display:inline;overflow:visible;enable-background:accumulate;font-family:Sans;-inkscape-font-specification:Sans"
       d="m 97.15625,125.125 0,1.59375 0,2.96875 C 96.77333,131.80141 96.85487,129.99636 97.125,132 l 0,2.84375 -0.03125,1.375 L 98,135.1875 l 3.34375,-3.90625 0.0937,0 -0.5625,-0.78125 -2.8125,-4.0625 z"
       transform="translate(0,652.36218)"
       id="path3870-0"
       inkscape:connector-curvature="0"
       sodipodi:nodetypes="cccccccccccc" />
    <text
       xml:space="preserve"
       style="font-size:8px;font-style:normal;font-weight:normal;line-height:125%;letter-spacing:0px;word-spacing:0px;fill:#000000;fill-opacity:1;stroke:none;font-family:Sans"
       x="92.678574"
       y="66.071426"
       id="text3110"
       sodipodi:linespacing="125%"
       transform="translate(0,652.36218)"><tspan
         sodipodi:role="line"
         id="tspan3112"
         x="92.678574"
         y="66.071426" /></text>
    <path
       sodipodi:type="inkscape:offset"
       inkscape:radius="0"
       inkscape:original="M 151.90625 741.03125 L 151.90625 747.125 L 152.625 747.125 L 152.625 744.625 C 152.625 744.19792 152.74479 743.8724 152.96875 743.625 C 153.19271 743.37761 153.48698 743.25 153.875 743.25 C 154.19791 743.25 154.46354 743.35677 154.625 743.5625 C 154.78645 743.76823 154.84375 744.08594 154.84375 744.5 L 154.84375 747.125 L 155.5625 747.125 L 155.5625 744.46875 C 155.5625 743.86459 155.44531 743.40365 155.1875 743.09375 C 154.92968 742.78125 154.5651 742.625 154.0625 742.625 C 153.75781 742.625 153.48437 742.6823 153.25 742.8125 C 153.01823 742.94271 152.79687 743.14323 152.625 743.40625 L 152.625 741.03125 L 151.90625 741.03125 z M 167 741.03125 L 167 747.125 L 167.71875 747.125 L 167.71875 741.03125 L 167 741.03125 z M 172.09375 741.03125 L 172.09375 743.40625 C 171.9427 743.14584 171.73177 742.9375 171.5 742.8125 C 171.27083 742.6849 171.01041 742.625 170.6875 742.625 C 170.15885 742.625 169.70833 742.82813 169.375 743.25 C 169.04427 743.67188 168.90625 744.25 168.90625 744.9375 C 168.90625 745.625 169.04427 746.17188 169.375 746.59375 C 169.70833 747.01563 170.15885 747.21875 170.6875 747.21875 C 171.01041 747.21875 171.27083 747.15625 171.5 747.03125 C 171.73177 746.90365 171.9427 746.72917 172.09375 746.46875 L 172.09375 747.125 L 172.8125 747.125 L 172.8125 741.03125 L 172.09375 741.03125 z M 233.40625 741.03125 L 233.40625 747.125 L 234.125 747.125 L 234.125 744.625 C 234.125 744.19792 234.24479 743.8724 234.46875 743.625 C 234.69271 743.37761 234.98698 743.25 235.375 743.25 C 235.69791 743.25 235.93229 743.35677 236.09375 743.5625 C 236.2552 743.76823 236.34375 744.08594 236.34375 744.5 L 236.34375 747.125 L 237.0625 747.125 L 237.0625 744.46875 C 237.0625 743.86459 236.94531 743.40365 236.6875 743.09375 C 236.42968 742.78125 236.03385 742.625 235.53125 742.625 C 235.22656 742.625 234.95312 742.6823 234.71875 742.8125 C 234.48698 742.94271 234.29687 743.14323 234.125 743.40625 L 234.125 741.03125 L 233.40625 741.03125 z M 265.46875 741.03125 L 265.46875 743.40625 C 265.3177 743.14584 265.10677 742.9375 264.875 742.8125 C 264.64583 742.6849 264.38541 742.625 264.0625 742.625 C 263.53385 742.625 263.08333 742.82813 262.75 743.25 C 262.41927 743.67188 262.28125 744.25 262.28125 744.9375 C 262.28125 745.625 262.41927 746.17188 262.75 746.59375 C 263.08333 747.01563 263.53385 747.21875 264.0625 747.21875 C 264.38541 747.21875 264.64583 747.15625 264.875 747.03125 C 265.10677 746.90365 265.3177 746.72917 265.46875 746.46875 L 265.46875 747.125 L 266.1875 747.125 L 266.1875 741.03125 L 265.46875 741.03125 z M 211.03125 741.1875 C 210.39323 741.18751 209.89583 741.32813 209.53125 741.625 C 209.16927 741.92188 208.96875 742.32813 208.96875 742.84375 C 208.96875 743.28907 209.11198 743.625 209.375 743.875 C 209.63802 744.125 210.06771 744.32032 210.65625 744.4375 L 211.125 744.53125 C 211.52604 744.61198 211.82552 744.71354 212 744.875 C 212.17708 745.03646 212.25 745.27604 212.25 745.5625 C 212.25 745.89063 212.15104 746.13542 211.90625 746.3125 C 211.66146 746.48958 211.29427 746.59375 210.84375 746.59375 C 210.54687 746.59375 210.24479 746.52865 209.9375 746.4375 C 209.63021 746.34635 209.32031 746.21094 209 746.03125 L 209 746.84375 C 209.33333 746.96615 209.65885 747.0625 209.96875 747.125 C 210.28125 747.1875 210.56771 747.21875 210.84375 747.21875 C 211.57552 747.21875 212.12239 747.07292 212.5 746.78125 C 212.8802 746.48958 213.09375 746.06511 213.09375 745.5 C 213.09375 745.02604 212.9375 744.65625 212.65625 744.375 C 212.3776 744.09115 211.96354 743.89323 211.375 743.78125 L 210.875 743.6875 C 210.44271 743.60677 210.15625 743.50521 210 743.375 C 209.84635 743.24219 209.78125 743.03907 209.78125 742.78125 C 209.78125 742.47396 209.89323 742.22917 210.125 742.0625 C 210.35937 741.89584 210.69531 741.81251 211.125 741.8125 C 211.37239 741.81251 211.60937 741.83594 211.875 741.90625 C 212.14062 741.97657 212.41927 742.10678 212.71875 742.25 L 212.71875 741.46875 C 212.42187 741.3698 212.15885 741.29948 211.875 741.25 C 211.59114 741.20053 211.30468 741.18751 211.03125 741.1875 z M 220.75 741.28125 L 220.75 747.125 L 221.53125 747.125 L 221.53125 744.78125 L 222.53125 744.78125 C 223.18489 744.78125 223.66666 744.60677 224 744.3125 C 224.33593 744.01823 224.53125 743.60677 224.53125 743.03125 C 224.53125 742.46094 224.33593 742.01303 224 741.71875 C 223.66666 741.42188 223.18489 741.28126 222.53125 741.28125 L 220.75 741.28125 z M 248.5 741.28125 L 248.5 747.125 L 252.125 747.125 L 252.125 746.4375 L 249.28125 746.4375 L 249.28125 741.28125 L 248.5 741.28125 z M 186.78125 741.5 L 186.78125 742.75 L 186.25 742.75 L 186.25 743.28125 L 186.78125 743.28125 L 186.78125 745.65625 C 186.78125 746.20313 186.88281 746.60417 187.09375 746.8125 C 187.30469 747.01823 187.69531 747.125 188.25 747.125 L 189 747.125 L 189 746.5 L 188.25 746.5 C 187.95052 746.5 187.75521 746.44531 187.65625 746.34375 C 187.55989 746.24219 187.5 746.01302 187.5 745.65625 L 187.5 743.28125 L 189 743.28125 L 189 742.75 L 187.5 742.75 L 187.5 741.5 L 186.78125 741.5 z M 214.28125 741.5 L 214.28125 742.75 L 213.75 742.75 L 213.75 743.28125 L 214.28125 743.28125 L 214.28125 745.65625 C 214.28125 746.20313 214.38281 746.60417 214.59375 746.8125 C 214.80469 747.01823 215.19531 747.125 215.75 747.125 L 216.46875 747.125 L 216.46875 746.5 L 215.75 746.5 C 215.45052 746.5 215.22396 746.44531 215.125 746.34375 C 215.02864 746.24219 215 746.01302 215 745.65625 L 215 743.28125 L 216.46875 743.28125 L 216.46875 742.75 L 215 742.75 L 215 741.5 L 214.28125 741.5 z M 230.28125 741.5 L 230.28125 742.75 L 229.75 742.75 L 229.75 743.28125 L 230.28125 743.28125 L 230.28125 745.65625 C 230.28125 746.20313 230.38281 746.60417 230.59375 746.8125 C 230.80469 747.01823 231.19531 747.125 231.75 747.125 L 232.46875 747.125 L 232.46875 746.5 L 231.75 746.5 C 231.45052 746.5 231.22396 746.44531 231.125 746.34375 C 231.02864 746.24219 231 746.01302 231 745.65625 L 231 743.28125 L 232.46875 743.28125 L 232.46875 742.75 L 231 742.75 L 231 741.5 L 230.28125 741.5 z M 221.53125 741.9375 L 222.53125 741.9375 C 222.89843 741.93751 223.17448 742.02865 223.375 742.21875 C 223.57552 742.40886 223.6875 742.6823 223.6875 743.03125 C 223.6875 743.38282 223.57552 743.65365 223.375 743.84375 C 223.17448 744.03386 222.89843 744.125 222.53125 744.125 L 221.53125 744.125 L 221.53125 741.9375 z M 149.15625 742.625 C 148.61979 742.625 148.19792 742.7448 147.90625 742.96875 C 147.61458 743.19271 147.46875 743.4948 147.46875 743.90625 C 147.46875 744.24479 147.58333 744.52344 147.78125 744.71875 C 147.97917 744.91146 148.30469 745.0625 148.75 745.15625 L 149 745.21875 C 149.44531 745.31511 149.71354 745.39584 149.84375 745.5 C 149.97656 745.60417 150.0625 745.77344 150.0625 745.96875 C 150.0625 746.17969 149.96354 746.32031 149.78125 746.4375 C 149.59896 746.55208 149.33854 746.625 149 746.625 C 148.74739 746.625 148.47656 746.59896 148.21875 746.53125 C 147.96094 746.46094 147.70312 746.35677 147.4375 746.21875 L 147.4375 746.9375 C 147.71875 747.02865 147.99739 747.11198 148.25 747.15625 C 148.50521 747.20312 148.73437 747.21875 148.96875 747.21875 C 149.53125 747.21875 149.99218 747.11198 150.3125 746.875 C 150.63541 746.63802 150.78125 746.3125 150.78125 745.90625 C 150.78125 745.54948 150.68489 745.26042 150.46875 745.0625 C 150.25521 744.86198 149.88541 744.70313 149.375 744.59375 L 149.125 744.5625 C 148.73958 744.47657 148.5026 744.375 148.375 744.28125 C 148.24739 744.1849 148.1875 744.04167 148.1875 743.875 C 148.1875 743.65625 148.26042 743.51563 148.4375 743.40625 C 148.61719 743.29688 148.89323 743.21875 149.25 743.21875 C 149.48437 743.21875 149.71875 743.26042 149.9375 743.3125 C 150.15625 743.36459 150.35937 743.42709 150.5625 743.53125 L 150.5625 742.875 C 150.36458 742.79688 150.14062 742.72657 149.90625 742.6875 C 149.67187 742.64844 149.42187 742.625 149.15625 742.625 z M 158.71875 742.625 C 158.09114 742.625 157.60677 742.84375 157.25 743.25 C 156.89583 743.65625 156.71875 744.21875 156.71875 744.9375 C 156.71875 745.65365 156.89583 746.21615 157.25 746.625 C 157.60677 747.03125 158.09114 747.21875 158.71875 747.21875 C 159.34375 747.21875 159.83073 747.03125 160.1875 746.625 C 160.54427 746.21615 160.71875 745.65365 160.71875 744.9375 C 160.71875 744.21875 160.54427 743.65625 160.1875 743.25 C 159.83073 742.84375 159.34375 742.625 158.71875 742.625 z M 178.9375 742.625 C 178.63281 742.625 178.35937 742.6823 178.125 742.8125 C 177.89323 742.94271 177.70312 743.14323 177.53125 743.40625 L 177.53125 742.75 L 176.8125 742.75 L 176.8125 747.125 L 177.53125 747.125 L 177.53125 744.625 C 177.53125 744.19792 177.65104 743.8724 177.875 743.625 C 178.09896 743.37761 178.39323 743.25 178.78125 743.25 C 179.10416 743.25 179.33854 743.35677 179.5 743.5625 C 179.66145 743.76823 179.75 744.08594 179.75 744.5 L 179.75 747.125 L 180.46875 747.125 L 180.46875 744.46875 C 180.46875 743.86459 180.35156 743.40365 180.09375 743.09375 C 179.83593 742.78125 179.4401 742.625 178.9375 742.625 z M 183.59375 742.625 C 182.96614 742.625 182.48177 742.84375 182.125 743.25 C 181.77083 743.65625 181.59375 744.21875 181.59375 744.9375 C 181.59375 745.65365 181.77083 746.21615 182.125 746.625 C 182.48177 747.03125 182.96614 747.21875 183.59375 747.21875 C 184.21875 747.21875 184.70573 747.03125 185.0625 746.625 C 185.41927 746.21615 185.625 745.65365 185.625 744.9375 C 185.625 744.21875 185.41927 743.65625 185.0625 743.25 C 184.70573 742.84375 184.21875 742.625 183.59375 742.625 z M 198.96875 742.625 C 198.43229 742.625 198.01042 742.7448 197.71875 742.96875 C 197.42708 743.19271 197.28125 743.4948 197.28125 743.90625 C 197.28125 744.24479 197.36458 744.52344 197.5625 744.71875 C 197.76042 744.91146 198.08594 745.0625 198.53125 745.15625 L 198.78125 745.21875 C 199.22656 745.31511 199.52604 745.39584 199.65625 745.5 C 199.78906 745.60417 199.84375 745.77344 199.84375 745.96875 C 199.84375 746.17969 199.74479 746.32031 199.5625 746.4375 C 199.38021 746.55208 199.11979 746.625 198.78125 746.625 C 198.52864 746.625 198.28906 746.59896 198.03125 746.53125 C 197.77344 746.46094 197.51562 746.35677 197.25 746.21875 L 197.25 746.9375 C 197.53125 747.02865 197.77864 747.11198 198.03125 747.15625 C 198.28646 747.20312 198.54687 747.21875 198.78125 747.21875 C 199.34375 747.21875 199.77343 747.11198 200.09375 746.875 C 200.41666 746.63802 200.59375 746.3125 200.59375 745.90625 C 200.59375 745.54948 200.46614 745.26042 200.25 745.0625 C 200.03646 744.86198 199.69791 744.70313 199.1875 744.59375 L 198.9375 744.5625 C 198.55208 744.47657 198.28385 744.375 198.15625 744.28125 C 198.02864 744.1849 197.96875 744.04167 197.96875 743.875 C 197.96875 743.65625 198.07292 743.51563 198.25 743.40625 C 198.42969 743.29688 198.67448 743.21875 199.03125 743.21875 C 199.26562 743.21875 199.5 743.26042 199.71875 743.3125 C 199.9375 743.36459 200.14062 743.42709 200.34375 743.53125 L 200.34375 742.875 C 200.14583 742.79688 199.95312 742.72657 199.71875 742.6875 C 199.48437 742.64844 199.23437 742.625 198.96875 742.625 z M 203.5625 742.625 C 202.90625 742.625 202.38802 742.82813 202 743.25 C 201.61458 743.66927 201.4375 744.25261 201.4375 744.96875 C 201.4375 745.66146 201.625 746.21875 202.03125 746.625 C 202.4401 747.03125 202.98958 747.21875 203.6875 747.21875 C 203.96614 747.21875 204.26041 747.18229 204.53125 747.125 C 204.80208 747.06771 205.05468 746.98438 205.3125 746.875 L 205.3125 746.21875 C 205.05729 746.35417 204.79166 746.43229 204.53125 746.5 C 204.27343 746.56771 204.02604 746.625 203.75 746.625 C 203.27344 746.625 202.89323 746.47656 202.625 746.21875 C 202.35937 745.95833 202.21875 745.58854 202.1875 745.09375 L 205.46875 745.09375 L 205.46875 744.75 C 205.46875 744.09896 205.3125 743.56511 204.96875 743.1875 C 204.6276 742.8073 204.15104 742.625 203.5625 742.625 z M 219.59375 742.625 C 219.24739 742.625 218.96094 742.6823 218.71875 742.8125 C 218.47656 742.94011 218.27604 743.14063 218.125 743.40625 L 218.125 742.75 L 217.40625 742.75 L 217.40625 747.125 L 218.125 747.125 L 218.125 744.8125 C 218.125 744.31771 218.22135 743.91927 218.4375 743.65625 C 218.65625 743.39063 218.96875 743.28125 219.375 743.28125 C 219.48958 743.28125 219.59375 743.28907 219.6875 743.3125 C 219.78385 743.33334 219.88802 743.35938 219.96875 743.40625 L 219.96875 742.65625 C 219.89583 742.64323 219.80989 742.66146 219.75 742.65625 C 219.6901 742.64844 219.64323 742.625 219.59375 742.625 z M 240.1875 742.625 C 239.55989 742.625 239.07552 742.84375 238.71875 743.25 C 238.36458 743.65625 238.1875 744.21875 238.1875 744.9375 C 238.1875 745.65365 238.36458 746.21615 238.71875 746.625 C 239.07552 747.03125 239.55989 747.21875 240.1875 747.21875 C 240.8125 747.21875 241.29948 747.03125 241.65625 746.625 C 242.01302 746.21615 242.21875 745.65365 242.21875 744.9375 C 242.21875 744.21875 242.01302 743.65625 241.65625 743.25 C 241.29948 742.84375 240.8125 742.625 240.1875 742.625 z M 245.5 742.625 C 245.19531 742.625 244.92187 742.6823 244.6875 742.8125 C 244.45573 742.94271 244.26562 743.14323 244.09375 743.40625 L 244.09375 742.75 L 243.375 742.75 L 243.375 747.125 L 244.09375 747.125 L 244.09375 744.625 C 244.09375 744.19792 244.21354 743.8724 244.4375 743.625 C 244.66146 743.37761 244.95573 743.25 245.34375 743.25 C 245.66666 743.25 245.90104 743.35677 246.0625 743.5625 C 246.22395 743.76823 246.3125 744.08594 246.3125 744.5 L 246.3125 747.125 L 247.03125 747.125 L 247.03125 744.46875 C 247.03125 743.86459 246.91406 743.40365 246.65625 743.09375 C 246.39843 742.78125 246.0026 742.625 245.5 742.625 z M 254.46875 742.625 C 253.84114 742.625 253.35677 742.84375 253 743.25 C 252.64583 743.65625 252.46875 744.21875 252.46875 744.9375 C 252.46875 745.65365 252.64583 746.21615 253 746.625 C 253.35677 747.03125 253.84114 747.21875 254.46875 747.21875 C 255.09375 747.21875 255.58073 747.03125 255.9375 746.625 C 256.29427 746.21615 256.5 745.65365 256.5 744.9375 C 256.5 744.21875 256.29427 743.65625 255.9375 743.25 C 255.58073 742.84375 255.09375 742.625 254.46875 742.625 z M 259.21875 742.625 C 258.98437 742.625 258.74739 742.66667 258.5 742.71875 C 258.2526 742.76823 257.98177 742.83594 257.71875 742.9375 L 257.71875 743.59375 C 257.9375 743.47396 258.16927 743.40365 258.40625 743.34375 C 258.64323 743.28386 258.875 743.25 259.125 743.25 C 259.51823 743.25 259.84635 743.31771 260.0625 743.5 C 260.28125 743.67969 260.375 743.95052 260.375 744.28125 L 260.375 744.34375 L 259.375 744.34375 C 258.72135 744.34375 258.23698 744.46875 257.90625 744.71875 C 257.57812 744.96875 257.40625 745.35156 257.40625 745.84375 C 257.40625 746.26563 257.51823 746.59115 257.78125 746.84375 C 258.04687 747.09375 258.42708 747.21875 258.875 747.21875 C 259.22916 747.21875 259.50521 747.15625 259.75 747.03125 C 259.99479 746.90365 260.21093 746.70313 260.375 746.4375 L 260.375 747.125 L 261.09375 747.125 L 261.09375 744.625 C 261.09375 743.95834 260.9375 743.45313 260.625 743.125 C 260.3125 742.79688 259.85156 742.625 259.21875 742.625 z M 269.5 742.625 C 268.84375 742.625 268.32552 742.82813 267.9375 743.25 C 267.55208 743.66927 267.34375 744.25261 267.34375 744.96875 C 267.34375 745.66146 267.5625 746.21875 267.96875 746.625 C 268.3776 747.03125 268.92708 747.21875 269.625 747.21875 C 269.90364 747.21875 270.16666 747.18229 270.4375 747.125 C 270.70833 747.06771 270.96093 746.98438 271.21875 746.875 L 271.21875 746.21875 C 270.96354 746.35417 270.72916 746.43229 270.46875 746.5 C 270.21093 746.56771 269.93229 746.625 269.65625 746.625 C 269.17969 746.625 268.79948 746.47656 268.53125 746.21875 C 268.26562 745.95833 268.125 745.58854 268.09375 745.09375 L 271.40625 745.09375 L 271.40625 744.75 C 271.40625 744.09896 271.21875 743.56511 270.875 743.1875 C 270.53385 742.8073 270.08854 742.625 269.5 742.625 z M 274.75 742.625 C 274.40364 742.625 274.11719 742.6823 273.875 742.8125 C 273.63281 742.94011 273.43229 743.14063 273.28125 743.40625 L 273.28125 742.75 L 272.5625 742.75 L 272.5625 747.125 L 273.28125 747.125 L 273.28125 744.8125 C 273.28125 744.31771 273.3776 743.91927 273.59375 743.65625 C 273.8125 743.39063 274.125 743.28125 274.53125 743.28125 C 274.64583 743.28125 274.75 743.28907 274.84375 743.3125 C 274.9401 743.33334 275.04427 743.35938 275.125 743.40625 L 275.125 742.65625 C 275.05208 742.64323 274.96614 742.66146 274.90625 742.65625 C 274.84635 742.64844 274.79948 742.625 274.75 742.625 z M 161.84375 742.75 L 161.84375 745.375 C 161.84375 745.97656 161.95833 746.4375 162.21875 746.75 C 162.47917 747.0625 162.87239 747.21875 163.375 747.21875 C 163.67968 747.21875 163.92708 747.15885 164.15625 747.03125 C 164.38802 746.90104 164.60677 746.70313 164.78125 746.4375 L 164.78125 747.125 L 165.5 747.125 L 165.5 742.75 L 164.78125 742.75 L 164.78125 745.21875 C 164.78125 745.64583 164.66406 745.97136 164.4375 746.21875 C 164.21354 746.46615 163.91927 746.59375 163.53125 746.59375 C 163.20833 746.59375 162.94271 746.48698 162.78125 746.28125 C 162.61979 746.07292 162.5625 745.75781 162.5625 745.34375 L 162.5625 742.75 L 161.84375 742.75 z M 192.40625 742.75 L 192.40625 745.375 C 192.40625 745.97656 192.55208 746.4375 192.8125 746.75 C 193.07292 747.0625 193.43489 747.21875 193.9375 747.21875 C 194.24218 747.21875 194.52083 747.15885 194.75 747.03125 C 194.98177 746.90104 195.16927 746.70313 195.34375 746.4375 L 195.34375 747.125 L 196.0625 747.125 L 196.0625 742.75 L 195.34375 742.75 L 195.34375 745.21875 C 195.34375 745.64583 195.25781 745.97136 195.03125 746.21875 C 194.80729 746.46615 194.48177 746.59375 194.09375 746.59375 C 193.77083 746.59375 193.53646 746.48698 193.375 746.28125 C 193.21354 746.07292 193.125 745.75781 193.125 745.34375 L 193.125 742.75 L 192.40625 742.75 z M 225.03125 742.75 L 226.8125 747.03125 L 226.6875 747.375 C 226.55469 747.72396 226.42187 747.9375 226.3125 748.03125 C 226.20312 748.125 226.04167 748.1875 225.84375 748.1875 L 225.4375 748.1875 L 225.4375 748.78125 L 226 748.78125 C 226.32292 748.78125 226.58854 748.6901 226.78125 748.53125 C 226.97396 748.37239 227.17187 748.05208 227.375 747.53125 L 229.28125 742.75 L 228.53125 742.75 L 227.15625 746.15625 L 225.78125 742.75 L 225.03125 742.75 z M 170.84375 743.21875 C 171.22396 743.21875 171.53125 743.38542 171.75 743.6875 C 171.96875 743.98698 172.09375 744.40886 172.09375 744.9375 C 172.09375 745.46615 171.96875 745.88542 171.75 746.1875 C 171.53125 746.48698 171.22396 746.625 170.84375 746.625 C 170.46354 746.625 170.1875 746.48698 169.96875 746.1875 C 169.7526 745.88542 169.625 745.46615 169.625 744.9375 C 169.625 744.40886 169.7526 743.98698 169.96875 743.6875 C 170.1875 743.38542 170.46354 743.21875 170.84375 743.21875 z M 264.21875 743.21875 C 264.59896 743.21875 264.90625 743.38542 265.125 743.6875 C 265.34375 743.98698 265.46875 744.40886 265.46875 744.9375 C 265.46875 745.46615 265.34375 745.88542 265.125 746.1875 C 264.90625 746.48698 264.59896 746.625 264.21875 746.625 C 263.83854 746.625 263.5625 746.48698 263.34375 746.1875 C 263.1276 745.88542 263 745.46615 263 744.9375 C 263 744.40886 263.1276 743.98698 263.34375 743.6875 C 263.5625 743.38542 263.83854 743.21875 264.21875 743.21875 z M 158.71875 743.25 C 159.10156 743.25 159.40104 743.38282 159.625 743.6875 C 159.84895 743.98959 159.96875 744.41927 159.96875 744.9375 C 159.96875 745.45833 159.84895 745.85417 159.625 746.15625 C 159.40104 746.45833 159.10156 746.625 158.71875 746.625 C 158.33073 746.625 158.00521 746.45573 157.78125 746.15625 C 157.55989 745.85417 157.46875 745.46094 157.46875 744.9375 C 157.46875 744.41407 157.58854 743.98698 157.8125 743.6875 C 158.03646 743.38542 158.33333 743.25 158.71875 743.25 z M 183.59375 743.25 C 183.97656 743.25 184.27604 743.38282 184.5 743.6875 C 184.72395 743.98959 184.84375 744.41927 184.84375 744.9375 C 184.84375 745.45833 184.72395 745.85417 184.5 746.15625 C 184.27604 746.45833 183.97656 746.625 183.59375 746.625 C 183.20573 746.625 182.91146 746.45573 182.6875 746.15625 C 182.46614 745.85417 182.34375 745.46094 182.34375 744.9375 C 182.34375 744.41407 182.46354 743.98698 182.6875 743.6875 C 182.91146 743.38542 183.20833 743.25 183.59375 743.25 z M 203.5625 743.25 C 203.91666 743.25 204.22396 743.35938 204.4375 743.59375 C 204.65364 743.82813 204.74479 744.13802 204.75 744.53125 L 202.1875 744.53125 C 202.22396 744.11979 202.38542 743.82032 202.625 743.59375 C 202.86719 743.36719 203.16146 743.25 203.5625 743.25 z M 240.1875 743.25 C 240.57031 743.25 240.86979 743.38282 241.09375 743.6875 C 241.3177 743.98959 241.4375 744.41927 241.4375 744.9375 C 241.4375 745.45833 241.3177 745.85417 241.09375 746.15625 C 240.86979 746.45833 240.57031 746.625 240.1875 746.625 C 239.79948 746.625 239.50521 746.45573 239.28125 746.15625 C 239.05989 745.85417 238.9375 745.46094 238.9375 744.9375 C 238.9375 744.41407 239.05729 743.98698 239.28125 743.6875 C 239.50521 743.38542 239.80208 743.25 240.1875 743.25 z M 254.46875 743.25 C 254.85156 743.25 255.15104 743.38282 255.375 743.6875 C 255.59895 743.98959 255.71875 744.41927 255.71875 744.9375 C 255.71875 745.45833 255.59895 745.85417 255.375 746.15625 C 255.15104 746.45833 254.85156 746.625 254.46875 746.625 C 254.08073 746.625 253.78646 746.45573 253.5625 746.15625 C 253.34114 745.85417 253.21875 745.46094 253.21875 744.9375 C 253.21875 744.41407 253.33854 743.98698 253.5625 743.6875 C 253.78646 743.38542 254.08333 743.25 254.46875 743.25 z M 269.5 743.25 C 269.85416 743.25 270.13021 743.35938 270.34375 743.59375 C 270.55989 743.82813 270.68229 744.13802 270.6875 744.53125 L 268.125 744.53125 C 268.16146 744.11979 268.29167 743.82032 268.53125 743.59375 C 268.77344 743.36719 269.09896 743.25 269.5 743.25 z M 259.65625 744.90625 L 260.375 744.90625 L 260.375 745.0625 C 260.375 745.53125 260.24218 745.90365 260 746.1875 C 259.76041 746.46875 259.46093 746.625 259.0625 746.625 C 258.77344 746.625 258.54427 746.55469 258.375 746.40625 C 258.20833 746.25521 258.125 746.03646 258.125 745.78125 C 258.125 745.46094 258.24479 745.25781 258.46875 745.125 C 258.69271 744.99219 259.07552 744.90625 259.65625 744.90625 z "
       style="font-size:9px;font-style:normal;font-weight:normal;line-height:125%;letter-spacing:0px;word-spacing:0px;fill:#000000;fill-opacity:1;stroke:none;font-family:Sans"
       id="path3226"
       d="m 151.90625,741.03125 0,6.09375 0.71875,0 0,-2.5 c 0,-0.42708 0.11979,-0.7526 0.34375,-1 0.22396,-0.24739 0.51823,-0.375 0.90625,-0.375 0.32291,0 0.58854,0.10677 0.75,0.3125 0.16145,0.20573 0.21875,0.52344 0.21875,0.9375 l 0,2.625 0.71875,0 0,-2.65625 c 0,-0.60416 -0.11719,-1.0651 -0.375,-1.375 -0.25782,-0.3125 -0.6224,-0.46875 -1.125,-0.46875 -0.30469,0 -0.57813,0.0573 -0.8125,0.1875 -0.23177,0.13021 -0.45313,0.33073 -0.625,0.59375 l 0,-2.375 -0.71875,0 z m 15.09375,0 0,6.09375 0.71875,0 0,-6.09375 -0.71875,0 z m 5.09375,0 0,2.375 c -0.15105,-0.26041 -0.36198,-0.46875 -0.59375,-0.59375 -0.22917,-0.1276 -0.48959,-0.1875 -0.8125,-0.1875 -0.52865,0 -0.97917,0.20313 -1.3125,0.625 -0.33073,0.42188 -0.46875,1 -0.46875,1.6875 0,0.6875 0.13802,1.23438 0.46875,1.65625 0.33333,0.42188 0.78385,0.625 1.3125,0.625 0.32291,0 0.58333,-0.0625 0.8125,-0.1875 0.23177,-0.1276 0.4427,-0.30208 0.59375,-0.5625 l 0,0.65625 0.71875,0 0,-6.09375 -0.71875,0 z m 61.3125,0 0,6.09375 0.71875,0 0,-2.5 c 0,-0.42708 0.11979,-0.7526 0.34375,-1 0.22396,-0.24739 0.51823,-0.375 0.90625,-0.375 0.32291,0 0.55729,0.10677 0.71875,0.3125 0.16145,0.20573 0.25,0.52344 0.25,0.9375 l 0,2.625 0.71875,0 0,-2.65625 c 0,-0.60416 -0.11719,-1.0651 -0.375,-1.375 -0.25782,-0.3125 -0.65365,-0.46875 -1.15625,-0.46875 -0.30469,0 -0.57813,0.0573 -0.8125,0.1875 -0.23177,0.13021 -0.42188,0.33073 -0.59375,0.59375 l 0,-2.375 -0.71875,0 z m 32.0625,0 0,2.375 c -0.15105,-0.26041 -0.36198,-0.46875 -0.59375,-0.59375 -0.22917,-0.1276 -0.48959,-0.1875 -0.8125,-0.1875 -0.52865,0 -0.97917,0.20313 -1.3125,0.625 -0.33073,0.42188 -0.46875,1 -0.46875,1.6875 0,0.6875 0.13802,1.23438 0.46875,1.65625 0.33333,0.42188 0.78385,0.625 1.3125,0.625 0.32291,0 0.58333,-0.0625 0.8125,-0.1875 0.23177,-0.1276 0.4427,-0.30208 0.59375,-0.5625 l 0,0.65625 0.71875,0 0,-6.09375 -0.71875,0 z m -54.4375,0.15625 c -0.63802,10e-6 -1.13542,0.14063 -1.5,0.4375 -0.36198,0.29688 -0.5625,0.70313 -0.5625,1.21875 0,0.44532 0.14323,0.78125 0.40625,1.03125 0.26302,0.25 0.69271,0.44532 1.28125,0.5625 l 0.46875,0.0937 c 0.40104,0.0807 0.70052,0.18229 0.875,0.34375 0.17708,0.16146 0.25,0.40104 0.25,0.6875 0,0.32813 -0.099,0.57292 -0.34375,0.75 -0.24479,0.17708 -0.61198,0.28125 -1.0625,0.28125 -0.29688,0 -0.59896,-0.0651 -0.90625,-0.15625 -0.30729,-0.0911 -0.61719,-0.22656 -0.9375,-0.40625 l 0,0.8125 c 0.33333,0.1224 0.65885,0.21875 0.96875,0.28125 0.3125,0.0625 0.59896,0.0937 0.875,0.0937 0.73177,0 1.27864,-0.14583 1.65625,-0.4375 0.3802,-0.29167 0.59375,-0.71614 0.59375,-1.28125 0,-0.47396 -0.15625,-0.84375 -0.4375,-1.125 -0.27865,-0.28385 -0.69271,-0.48177 -1.28125,-0.59375 l -0.5,-0.0937 c -0.43229,-0.0807 -0.71875,-0.18229 -0.875,-0.3125 -0.15365,-0.13281 -0.21875,-0.33593 -0.21875,-0.59375 0,-0.30729 0.11198,-0.55208 0.34375,-0.71875 0.23437,-0.16666 0.57031,-0.24999 1,-0.25 0.24739,10e-6 0.48437,0.0234 0.75,0.0937 0.26562,0.0703 0.54427,0.20053 0.84375,0.34375 l 0,-0.78125 c -0.29688,-0.0989 -0.5599,-0.16927 -0.84375,-0.21875 -0.28386,-0.0495 -0.57032,-0.0625 -0.84375,-0.0625 z m 9.71875,0.0937 0,5.84375 0.78125,0 0,-2.34375 1,0 c 0.65364,0 1.13541,-0.17448 1.46875,-0.46875 0.33593,-0.29427 0.53125,-0.70573 0.53125,-1.28125 0,-0.57031 -0.19532,-1.01822 -0.53125,-1.3125 -0.33334,-0.29687 -0.81511,-0.43749 -1.46875,-0.4375 l -1.78125,0 z m 27.75,0 0,5.84375 3.625,0 0,-0.6875 -2.84375,0 0,-5.15625 -0.78125,0 z m -61.71875,0.21875 0,1.25 -0.53125,0 0,0.53125 0.53125,0 0,2.375 c 0,0.54688 0.10156,0.94792 0.3125,1.15625 0.21094,0.20573 0.60156,0.3125 1.15625,0.3125 l 0.75,0 0,-0.625 -0.75,0 c -0.29948,0 -0.49479,-0.0547 -0.59375,-0.15625 -0.0964,-0.10156 -0.15625,-0.33073 -0.15625,-0.6875 l 0,-2.375 1.5,0 0,-0.53125 -1.5,0 0,-1.25 -0.71875,0 z m 27.5,0 0,1.25 -0.53125,0 0,0.53125 0.53125,0 0,2.375 c 0,0.54688 0.10156,0.94792 0.3125,1.15625 0.21094,0.20573 0.60156,0.3125 1.15625,0.3125 l 0.71875,0 0,-0.625 -0.71875,0 c -0.29948,0 -0.52604,-0.0547 -0.625,-0.15625 -0.0964,-0.10156 -0.125,-0.33073 -0.125,-0.6875 l 0,-2.375 1.46875,0 0,-0.53125 -1.46875,0 0,-1.25 -0.71875,0 z m 16,0 0,1.25 -0.53125,0 0,0.53125 0.53125,0 0,2.375 c 0,0.54688 0.10156,0.94792 0.3125,1.15625 0.21094,0.20573 0.60156,0.3125 1.15625,0.3125 l 0.71875,0 0,-0.625 -0.71875,0 c -0.29948,0 -0.52604,-0.0547 -0.625,-0.15625 -0.0964,-0.10156 -0.125,-0.33073 -0.125,-0.6875 l 0,-2.375 1.46875,0 0,-0.53125 -1.46875,0 0,-1.25 -0.71875,0 z m -8.75,0.4375 1,0 c 0.36718,10e-6 0.64323,0.0911 0.84375,0.28125 0.20052,0.19011 0.3125,0.46355 0.3125,0.8125 0,0.35157 -0.11198,0.6224 -0.3125,0.8125 -0.20052,0.19011 -0.47657,0.28125 -0.84375,0.28125 l -1,0 0,-2.1875 z m -72.375,0.6875 c -0.53646,0 -0.95833,0.1198 -1.25,0.34375 -0.29167,0.22396 -0.4375,0.52605 -0.4375,0.9375 0,0.33854 0.11458,0.61719 0.3125,0.8125 0.19792,0.19271 0.52344,0.34375 0.96875,0.4375 l 0.25,0.0625 c 0.44531,0.0964 0.71354,0.17709 0.84375,0.28125 0.13281,0.10417 0.21875,0.27344 0.21875,0.46875 0,0.21094 -0.099,0.35156 -0.28125,0.46875 -0.18229,0.11458 -0.44271,0.1875 -0.78125,0.1875 -0.25261,0 -0.52344,-0.026 -0.78125,-0.0937 -0.25781,-0.0703 -0.51563,-0.17448 -0.78125,-0.3125 l 0,0.71875 c 0.28125,0.0911 0.55989,0.17448 0.8125,0.21875 0.25521,0.0469 0.48437,0.0625 0.71875,0.0625 0.5625,0 1.02343,-0.10677 1.34375,-0.34375 0.32291,-0.23698 0.46875,-0.5625 0.46875,-0.96875 0,-0.35677 -0.0964,-0.64583 -0.3125,-0.84375 -0.21354,-0.20052 -0.58334,-0.35937 -1.09375,-0.46875 l -0.25,-0.0312 c -0.38542,-0.0859 -0.6224,-0.1875 -0.75,-0.28125 -0.12761,-0.0964 -0.1875,-0.23958 -0.1875,-0.40625 0,-0.21875 0.0729,-0.35937 0.25,-0.46875 0.17969,-0.10937 0.45573,-0.1875 0.8125,-0.1875 0.23437,0 0.46875,0.0417 0.6875,0.0937 0.21875,0.0521 0.42187,0.11459 0.625,0.21875 l 0,-0.65625 c -0.19792,-0.0781 -0.42188,-0.14843 -0.65625,-0.1875 -0.23438,-0.0391 -0.48438,-0.0625 -0.75,-0.0625 z m 9.5625,0 c -0.62761,0 -1.11198,0.21875 -1.46875,0.625 -0.35417,0.40625 -0.53125,0.96875 -0.53125,1.6875 0,0.71615 0.17708,1.27865 0.53125,1.6875 0.35677,0.40625 0.84114,0.59375 1.46875,0.59375 0.625,0 1.11198,-0.1875 1.46875,-0.59375 0.35677,-0.40885 0.53125,-0.97135 0.53125,-1.6875 0,-0.71875 -0.17448,-1.28125 -0.53125,-1.6875 -0.35677,-0.40625 -0.84375,-0.625 -1.46875,-0.625 z m 20.21875,0 c -0.30469,0 -0.57813,0.0573 -0.8125,0.1875 -0.23177,0.13021 -0.42188,0.33073 -0.59375,0.59375 l 0,-0.65625 -0.71875,0 0,4.375 0.71875,0 0,-2.5 c 0,-0.42708 0.11979,-0.7526 0.34375,-1 0.22396,-0.24739 0.51823,-0.375 0.90625,-0.375 0.32291,0 0.55729,0.10677 0.71875,0.3125 0.16145,0.20573 0.25,0.52344 0.25,0.9375 l 0,2.625 0.71875,0 0,-2.65625 c 0,-0.60416 -0.11719,-1.0651 -0.375,-1.375 -0.25782,-0.3125 -0.65365,-0.46875 -1.15625,-0.46875 z m 4.65625,0 c -0.62761,0 -1.11198,0.21875 -1.46875,0.625 -0.35417,0.40625 -0.53125,0.96875 -0.53125,1.6875 0,0.71615 0.17708,1.27865 0.53125,1.6875 0.35677,0.40625 0.84114,0.59375 1.46875,0.59375 0.625,0 1.11198,-0.1875 1.46875,-0.59375 0.35677,-0.40885 0.5625,-0.97135 0.5625,-1.6875 0,-0.71875 -0.20573,-1.28125 -0.5625,-1.6875 -0.35677,-0.40625 -0.84375,-0.625 -1.46875,-0.625 z m 15.375,0 c -0.53646,0 -0.95833,0.1198 -1.25,0.34375 -0.29167,0.22396 -0.4375,0.52605 -0.4375,0.9375 0,0.33854 0.0833,0.61719 0.28125,0.8125 0.19792,0.19271 0.52344,0.34375 0.96875,0.4375 l 0.25,0.0625 c 0.44531,0.0964 0.74479,0.17709 0.875,0.28125 0.13281,0.10417 0.1875,0.27344 0.1875,0.46875 0,0.21094 -0.099,0.35156 -0.28125,0.46875 -0.18229,0.11458 -0.44271,0.1875 -0.78125,0.1875 -0.25261,0 -0.49219,-0.026 -0.75,-0.0937 -0.25781,-0.0703 -0.51563,-0.17448 -0.78125,-0.3125 l 0,0.71875 c 0.28125,0.0911 0.52864,0.17448 0.78125,0.21875 0.25521,0.0469 0.51562,0.0625 0.75,0.0625 0.5625,0 0.99218,-0.10677 1.3125,-0.34375 0.32291,-0.23698 0.5,-0.5625 0.5,-0.96875 0,-0.35677 -0.12761,-0.64583 -0.34375,-0.84375 -0.21354,-0.20052 -0.55209,-0.35937 -1.0625,-0.46875 l -0.25,-0.0312 c -0.38542,-0.0859 -0.65365,-0.1875 -0.78125,-0.28125 -0.12761,-0.0964 -0.1875,-0.23958 -0.1875,-0.40625 0,-0.21875 0.10417,-0.35937 0.28125,-0.46875 0.17969,-0.10937 0.42448,-0.1875 0.78125,-0.1875 0.23437,0 0.46875,0.0417 0.6875,0.0937 0.21875,0.0521 0.42187,0.11459 0.625,0.21875 l 0,-0.65625 c -0.19792,-0.0781 -0.39063,-0.14843 -0.625,-0.1875 -0.23438,-0.0391 -0.48438,-0.0625 -0.75,-0.0625 z m 4.59375,0 c -0.65625,0 -1.17448,0.20313 -1.5625,0.625 -0.38542,0.41927 -0.5625,1.00261 -0.5625,1.71875 0,0.69271 0.1875,1.25 0.59375,1.65625 0.40885,0.40625 0.95833,0.59375 1.65625,0.59375 0.27864,0 0.57291,-0.0365 0.84375,-0.0937 0.27083,-0.0573 0.52343,-0.14062 0.78125,-0.25 l 0,-0.65625 c -0.25521,0.13542 -0.52084,0.21354 -0.78125,0.28125 -0.25782,0.0677 -0.50521,0.125 -0.78125,0.125 -0.47656,0 -0.85677,-0.14844 -1.125,-0.40625 -0.26563,-0.26042 -0.40625,-0.63021 -0.4375,-1.125 l 3.28125,0 0,-0.34375 c 0,-0.65104 -0.15625,-1.18489 -0.5,-1.5625 -0.34115,-0.3802 -0.81771,-0.5625 -1.40625,-0.5625 z m 16.03125,0 c -0.34636,0 -0.63281,0.0573 -0.875,0.1875 -0.24219,0.12761 -0.44271,0.32813 -0.59375,0.59375 l 0,-0.65625 -0.71875,0 0,4.375 0.71875,0 0,-2.3125 c 0,-0.49479 0.0964,-0.89323 0.3125,-1.15625 0.21875,-0.26562 0.53125,-0.375 0.9375,-0.375 0.11458,0 0.21875,0.008 0.3125,0.0312 0.0964,0.0208 0.20052,0.0469 0.28125,0.0937 l 0,-0.75 c -0.0729,-0.013 -0.15886,0.005 -0.21875,0 -0.0599,-0.008 -0.10677,-0.0312 -0.15625,-0.0312 z m 20.59375,0 c -0.62761,0 -1.11198,0.21875 -1.46875,0.625 -0.35417,0.40625 -0.53125,0.96875 -0.53125,1.6875 0,0.71615 0.17708,1.27865 0.53125,1.6875 0.35677,0.40625 0.84114,0.59375 1.46875,0.59375 0.625,0 1.11198,-0.1875 1.46875,-0.59375 0.35677,-0.40885 0.5625,-0.97135 0.5625,-1.6875 0,-0.71875 -0.20573,-1.28125 -0.5625,-1.6875 -0.35677,-0.40625 -0.84375,-0.625 -1.46875,-0.625 z m 5.3125,0 c -0.30469,0 -0.57813,0.0573 -0.8125,0.1875 -0.23177,0.13021 -0.42188,0.33073 -0.59375,0.59375 l 0,-0.65625 -0.71875,0 0,4.375 0.71875,0 0,-2.5 c 0,-0.42708 0.11979,-0.7526 0.34375,-1 0.22396,-0.24739 0.51823,-0.375 0.90625,-0.375 0.32291,0 0.55729,0.10677 0.71875,0.3125 0.16145,0.20573 0.25,0.52344 0.25,0.9375 l 0,2.625 0.71875,0 0,-2.65625 c 0,-0.60416 -0.11719,-1.0651 -0.375,-1.375 -0.25782,-0.3125 -0.65365,-0.46875 -1.15625,-0.46875 z m 8.96875,0 c -0.62761,0 -1.11198,0.21875 -1.46875,0.625 -0.35417,0.40625 -0.53125,0.96875 -0.53125,1.6875 0,0.71615 0.17708,1.27865 0.53125,1.6875 0.35677,0.40625 0.84114,0.59375 1.46875,0.59375 0.625,0 1.11198,-0.1875 1.46875,-0.59375 0.35677,-0.40885 0.5625,-0.97135 0.5625,-1.6875 0,-0.71875 -0.20573,-1.28125 -0.5625,-1.6875 -0.35677,-0.40625 -0.84375,-0.625 -1.46875,-0.625 z m 4.75,0 c -0.23438,0 -0.47136,0.0417 -0.71875,0.0937 -0.2474,0.0495 -0.51823,0.11719 -0.78125,0.21875 l 0,0.65625 c 0.21875,-0.11979 0.45052,-0.1901 0.6875,-0.25 0.23698,-0.0599 0.46875,-0.0937 0.71875,-0.0937 0.39323,0 0.72135,0.0677 0.9375,0.25 0.21875,0.17969 0.3125,0.45052 0.3125,0.78125 l 0,0.0625 -1,0 c -0.65365,0 -1.13802,0.125 -1.46875,0.375 -0.32813,0.25 -0.5,0.63281 -0.5,1.125 0,0.42188 0.11198,0.7474 0.375,1 0.26562,0.25 0.64583,0.375 1.09375,0.375 0.35416,0 0.63021,-0.0625 0.875,-0.1875 0.24479,-0.1276 0.46093,-0.32812 0.625,-0.59375 l 0,0.6875 0.71875,0 0,-2.5 c 0,-0.66666 -0.15625,-1.17187 -0.46875,-1.5 -0.3125,-0.32812 -0.77344,-0.5 -1.40625,-0.5 z m 10.28125,0 c -0.65625,0 -1.17448,0.20313 -1.5625,0.625 -0.38542,0.41927 -0.59375,1.00261 -0.59375,1.71875 0,0.69271 0.21875,1.25 0.625,1.65625 0.40885,0.40625 0.95833,0.59375 1.65625,0.59375 0.27864,0 0.54166,-0.0365 0.8125,-0.0937 0.27083,-0.0573 0.52343,-0.14062 0.78125,-0.25 l 0,-0.65625 c -0.25521,0.13542 -0.48959,0.21354 -0.75,0.28125 -0.25782,0.0677 -0.53646,0.125 -0.8125,0.125 -0.47656,0 -0.85677,-0.14844 -1.125,-0.40625 -0.26563,-0.26042 -0.40625,-0.63021 -0.4375,-1.125 l 3.3125,0 0,-0.34375 c 0,-0.65104 -0.1875,-1.18489 -0.53125,-1.5625 -0.34115,-0.3802 -0.78646,-0.5625 -1.375,-0.5625 z m 5.25,0 c -0.34636,0 -0.63281,0.0573 -0.875,0.1875 -0.24219,0.12761 -0.44271,0.32813 -0.59375,0.59375 l 0,-0.65625 -0.71875,0 0,4.375 0.71875,0 0,-2.3125 c 0,-0.49479 0.0963,-0.89323 0.3125,-1.15625 0.21875,-0.26562 0.53125,-0.375 0.9375,-0.375 0.11458,0 0.21875,0.008 0.3125,0.0312 0.0963,0.0208 0.20052,0.0469 0.28125,0.0937 l 0,-0.75 c -0.0729,-0.013 -0.15886,0.005 -0.21875,0 -0.0599,-0.008 -0.10677,-0.0312 -0.15625,-0.0312 z m -112.90625,0.125 0,2.625 c 0,0.60156 0.11458,1.0625 0.375,1.375 0.26042,0.3125 0.65364,0.46875 1.15625,0.46875 0.30468,0 0.55208,-0.0599 0.78125,-0.1875 0.23177,-0.13021 0.45052,-0.32812 0.625,-0.59375 l 0,0.6875 0.71875,0 0,-4.375 -0.71875,0 0,2.46875 c 0,0.42708 -0.11719,0.75261 -0.34375,1 -0.22396,0.2474 -0.51823,0.375 -0.90625,0.375 -0.32292,0 -0.58854,-0.10677 -0.75,-0.3125 -0.16146,-0.20833 -0.21875,-0.52344 -0.21875,-0.9375 l 0,-2.59375 -0.71875,0 z m 30.5625,0 0,2.625 c 0,0.60156 0.14583,1.0625 0.40625,1.375 0.26042,0.3125 0.62239,0.46875 1.125,0.46875 0.30468,0 0.58333,-0.0599 0.8125,-0.1875 0.23177,-0.13021 0.41927,-0.32812 0.59375,-0.59375 l 0,0.6875 0.71875,0 0,-4.375 -0.71875,0 0,2.46875 c 0,0.42708 -0.0859,0.75261 -0.3125,1 -0.22396,0.2474 -0.54948,0.375 -0.9375,0.375 -0.32292,0 -0.55729,-0.10677 -0.71875,-0.3125 -0.16146,-0.20833 -0.25,-0.52344 -0.25,-0.9375 l 0,-2.59375 -0.71875,0 z m 32.625,0 1.78125,4.28125 -0.125,0.34375 c -0.13281,0.34896 -0.26563,0.5625 -0.375,0.65625 -0.10938,0.0937 -0.27083,0.15625 -0.46875,0.15625 l -0.40625,0 0,0.59375 0.5625,0 c 0.32292,0 0.58854,-0.0911 0.78125,-0.25 0.19271,-0.15886 0.39062,-0.47917 0.59375,-1 l 1.90625,-4.78125 -0.75,0 -1.375,3.40625 -1.375,-3.40625 -0.75,0 z m -54.1875,0.46875 c 0.38021,0 0.6875,0.16667 0.90625,0.46875 0.21875,0.29948 0.34375,0.72136 0.34375,1.25 0,0.52865 -0.125,0.94792 -0.34375,1.25 -0.21875,0.29948 -0.52604,0.4375 -0.90625,0.4375 -0.38021,0 -0.65625,-0.13802 -0.875,-0.4375 -0.21615,-0.30208 -0.34375,-0.72135 -0.34375,-1.25 0,-0.52864 0.1276,-0.95052 0.34375,-1.25 0.21875,-0.30208 0.49479,-0.46875 0.875,-0.46875 z m 93.375,0 c 0.38021,0 0.6875,0.16667 0.90625,0.46875 0.21875,0.29948 0.34375,0.72136 0.34375,1.25 0,0.52865 -0.125,0.94792 -0.34375,1.25 -0.21875,0.29948 -0.52604,0.4375 -0.90625,0.4375 -0.38021,0 -0.65625,-0.13802 -0.875,-0.4375 C 263.1276,745.88542 263,745.46615 263,744.9375 c 0,-0.52864 0.1276,-0.95052 0.34375,-1.25 0.21875,-0.30208 0.49479,-0.46875 0.875,-0.46875 z m -105.5,0.0312 c 0.38281,0 0.68229,0.13282 0.90625,0.4375 0.22395,0.30209 0.34375,0.73177 0.34375,1.25 0,0.52083 -0.1198,0.91667 -0.34375,1.21875 -0.22396,0.30208 -0.52344,0.46875 -0.90625,0.46875 -0.38802,0 -0.71354,-0.16927 -0.9375,-0.46875 -0.22136,-0.30208 -0.3125,-0.69531 -0.3125,-1.21875 0,-0.52343 0.11979,-0.95052 0.34375,-1.25 0.22396,-0.30208 0.52083,-0.4375 0.90625,-0.4375 z m 24.875,0 c 0.38281,0 0.68229,0.13282 0.90625,0.4375 0.22395,0.30209 0.34375,0.73177 0.34375,1.25 0,0.52083 -0.1198,0.91667 -0.34375,1.21875 -0.22396,0.30208 -0.52344,0.46875 -0.90625,0.46875 -0.38802,0 -0.68229,-0.16927 -0.90625,-0.46875 -0.22136,-0.30208 -0.34375,-0.69531 -0.34375,-1.21875 0,-0.52343 0.11979,-0.95052 0.34375,-1.25 0.22396,-0.30208 0.52083,-0.4375 0.90625,-0.4375 z m 19.96875,0 c 0.35416,0 0.66146,0.10938 0.875,0.34375 0.21614,0.23438 0.30729,0.54427 0.3125,0.9375 l -2.5625,0 c 0.0365,-0.41146 0.19792,-0.71093 0.4375,-0.9375 0.24219,-0.22656 0.53646,-0.34375 0.9375,-0.34375 z m 36.625,0 c 0.38281,0 0.68229,0.13282 0.90625,0.4375 0.22395,0.30209 0.34375,0.73177 0.34375,1.25 0,0.52083 -0.1198,0.91667 -0.34375,1.21875 -0.22396,0.30208 -0.52344,0.46875 -0.90625,0.46875 -0.38802,0 -0.68229,-0.16927 -0.90625,-0.46875 -0.22136,-0.30208 -0.34375,-0.69531 -0.34375,-1.21875 0,-0.52343 0.11979,-0.95052 0.34375,-1.25 0.22396,-0.30208 0.52083,-0.4375 0.90625,-0.4375 z m 14.28125,0 c 0.38281,0 0.68229,0.13282 0.90625,0.4375 0.22395,0.30209 0.34375,0.73177 0.34375,1.25 0,0.52083 -0.1198,0.91667 -0.34375,1.21875 -0.22396,0.30208 -0.52344,0.46875 -0.90625,0.46875 -0.38802,0 -0.68229,-0.16927 -0.90625,-0.46875 -0.22136,-0.30208 -0.34375,-0.69531 -0.34375,-1.21875 0,-0.52343 0.11979,-0.95052 0.34375,-1.25 0.22396,-0.30208 0.52083,-0.4375 0.90625,-0.4375 z m 15.03125,0 c 0.35416,0 0.63021,0.10938 0.84375,0.34375 0.21614,0.23438 0.33854,0.54427 0.34375,0.9375 l -2.5625,0 c 0.0365,-0.41146 0.16667,-0.71093 0.40625,-0.9375 0.24219,-0.22656 0.56771,-0.34375 0.96875,-0.34375 z m -9.84375,1.65625 0.71875,0 0,0.15625 c 0,0.46875 -0.13282,0.84115 -0.375,1.125 -0.23959,0.28125 -0.53907,0.4375 -0.9375,0.4375 -0.28906,0 -0.51823,-0.0703 -0.6875,-0.21875 -0.16667,-0.15104 -0.25,-0.36979 -0.25,-0.625 0,-0.32031 0.11979,-0.52344 0.34375,-0.65625 0.22396,-0.13281 0.60677,-0.21875 1.1875,-0.21875 z"
       transform="translate(-57.5,-0.35714286)" />
    <path
       style="font-size:medium;font-style:normal;font-variant:normal;font-weight:normal;font-stretch:normal;text-indent:0;text-align:start;text-decoration:none;line-height:normal;letter-spacing:normal;word-spacing:normal;text-transform:none;direction:ltr;block-progression:tb;writing-mode:lr-tb;text-anchor:start;baseline-shift:baseline;color:#000000;fill:#000000;fill-opacity:1;stroke:none;stroke-width:1px;marker:none;visibility:visible;display:inline;overflow:visible;enable-background:accumulate;font-family:Sans;-inkscape-font-specification:Sans"
       d="m 207.7841,789.64722 -1.59375,0 -2.96875,0 c -2.11391,-0.38292 -0.30886,-0.30138 -2.3125,-0.0312 l -2.84375,0 -1.375,-0.0312 1.03125,0.90625 3.90625,3.34375 0,0.0937 0.78125,-0.5625 4.0625,-2.8125 z"
       id="path3870-0-3"
       inkscape:connector-curvature="0"
       sodipodi:nodetypes="cccccccccccc" />
    <path
       style="fill:none;stroke:#000000;stroke-width:1px;stroke-linecap:butt;stroke-linejoin:miter;stroke-opacity:1"
       d="m 202.02557,789.48043 c -0.0272,-10.574 -0.0545,-25.06726 -0.0817,-31.72199"
       id="path3156"
       inkscape:connector-curvature="0"
       sodipodi:nodetypes="cc" />
    <text
       xml:space="preserve"
       style="font-size:9px;font-style:normal;font-weight:normal;line-height:125%;letter-spacing:0px;word-spacing:0px;fill:#000000;fill-opacity:1;stroke:none;font-family:Sans"
       x="176.21468"
       y="720.02124"
       id="text3158"
       sodipodi:linespacing="125%"><tspan
         sodipodi:role="line"
         id="tspan3160"
         x="176.21468"
         y="720.02124"
         style="font-size:8px">Add to StrAppsInstall, only pip</tspan></text>
    <path
       style="font-size:medium;font-style:normal;font-variant:normal;font-weight:normal;font-stretch:normal;text-indent:0;text-align:start;text-decoration:none;line-height:normal;letter-spacing:normal;word-spacing:normal;text-transform:none;direction:ltr;block-progression:tb;writing-mode:lr-tb;text-anchor:start;baseline-shift:baseline;color:#000000;fill:#000000;fill-opacity:1;stroke:none;stroke-width:1px;marker:none;visibility:visible;display:inline;overflow:visible;enable-background:accumulate;font-family:Sans;-inkscape-font-specification:Sans"
       d="m 220.99186,745.13819 0,-1 13.78125,-0.125 0,-13.15625 c -0.1536,-0.0385 -0.3648,-0.0646 -0.8125,-0.125 l -2.84375,0 -1.375,0.0312 1.03125,-0.90625 3.90625,-3.34375 0,-0.0937 0.78125,0.5625 4.0625,2.8125 1.3125,0.90625 -1.59375,0 -2.96875,0 c -0.26424,0.0479 -0.34314,0.0599 -0.5,0.0937 l 0,13.71875 0,0.5 -0.5,0 -14.28125,0.125 z"
       id="path3870-0-8"
       inkscape:connector-curvature="0" />
    <text
       xml:space="preserve"
       style="font-size:9px;font-style:normal;font-weight:normal;line-height:125%;letter-spacing:0px;word-spacing:0px;fill:#000000;fill-opacity:1;stroke:none;font-family:Sans"
       x="208.80316"
       y="797.46582"
       id="text3248"
       sodipodi:linespacing="125%"><tspan
         sodipodi:role="line"
         id="tspan3250"
         x="208.80316"
         y="797.46582"
         style="font-size:8px">Pip require --upgrade </tspan></text>
    <text
       xml:space="preserve"
       style="font-size:9px;font-style:normal;font-weight:normal;line-height:125%;letter-spacing:0px;word-spacing:0px;fill:#000000;fill-opacity:1;stroke:none;font-family:Sans"
       x="205.92062"
       y="835.50061"
       id="text3252"
       sodipodi:linespacing="125%"><tspan
         sodipodi:role="line"
         id="tspan3254"
         x="205.92062"
         y="835.50061"
         style="font-size:8px">Does not require </tspan><tspan
         sodipodi:role="line"
         x="205.92062"
         y="845.50061"
         style="font-size:8px"
         id="tspan3256">--upgrade</tspan></text>
    <path
       style="font-size:medium;font-style:normal;font-variant:normal;font-weight:normal;font-stretch:normal;text-indent:0;text-align:start;text-decoration:none;line-height:normal;letter-spacing:normal;word-spacing:normal;text-transform:none;direction:ltr;block-progression:tb;writing-mode:lr-tb;text-anchor:start;baseline-shift:baseline;color:#000000;fill:#000000;fill-opacity:1;stroke:none;stroke-width:1px;marker:none;visibility:visible;display:inline;overflow:visible;enable-background:accumulate;font-family:Sans;-inkscape-font-specification:Sans"
       d="m 32.37592,729.99488 -1.59375,0 -2.96875,0 c -2.11391,-0.38292 -0.30886,-0.30138 -2.3125,-0.0312 l -2.84375,0 -1.375,-0.0312 1.03125,0.90625 3.90625,3.34376 0,0.0937 0.78125,-0.5625 4.0625,-2.81251 z"
       id="path3870-0-0"
       inkscape:connector-curvature="0"
       sodipodi:nodetypes="cccccccccccc" />
    <rect
       style="fill:#ffffff;stroke:#000000;stroke-width:1.00268078;stroke-linejoin:round;stroke-opacity:1"
       id="rect3005-1-4"
       width="76.679703"
       height="31.935322"
       x="91.969826"
       y="805.06958" />
    <text
       xml:space="preserve"
       style="font-size:9px;font-style:normal;font-weight:normal;line-height:125%;letter-spacing:0px;word-spacing:0px;fill:#000000;fill-opacity:1;stroke:none;font-family:Sans"
       x="96.974655"
       y="816.49152"
       id="text3320"
       sodipodi:linespacing="125%"><tspan
         sodipodi:role="line"
         id="tspan3322"
         x="96.974655"
         y="816.49152"
         style="font-size:8px">Should use </tspan><tspan
         sodipodi:role="line"
         x="96.974655"
         y="826.49152"
         style="font-size:8px"
         id="tspan3324">StrPythonLoader.</tspan></text>
    <path
       style="fill:none;stroke:#000000;stroke-width:1px;stroke-linecap:butt;stroke-linejoin:miter;stroke-opacity:1"
       d="m 201.78571,106.25 0.43431,-0.38427 64.56569,-0.33002 0,-31.78571"
       id="path3331"
       inkscape:connector-curvature="0"
       transform="translate(0,652.36218)"
       sodipodi:nodetypes="cccc" />
    <g
       style="font-size:9px;font-style:normal;font-weight:normal;line-height:125%;letter-spacing:0px;word-spacing:0px;fill:#000000;fill-opacity:1;stroke:none;font-family:Sans"
       id="text3333"
       transform="translate(56.063466,0)">
      <path
         d="m 39.931499,854.62189 -0.802734,2.17676 1.608399,0 -0.805665,-2.17676 m -0.333984,-0.58301 0.670899,0 1.666992,4.37402 -0.615235,0 -0.398437,-1.12207 -1.97168,0 -0.398437,1.12207 -0.624024,0 1.669922,-4.37402"
         style="font-size:6px"
         id="path3343"
         inkscape:connector-curvature="0" />
      <path
         d="m 44.601421,855.6297 0,-1.77539 0.539063,0 0,4.55859 -0.539063,0 0,-0.49218 c -0.113284,0.19531 -0.256838,0.34082 -0.430664,0.43652 -0.171877,0.0937 -0.378908,0.14062 -0.621093,0.14062 -0.396486,0 -0.719728,-0.1582 -0.969727,-0.47461 -0.248047,-0.3164 -0.372071,-0.73242 -0.37207,-1.24804 -10e-7,-0.51563 0.124023,-0.93164 0.37207,-1.24805 0.249999,-0.3164 0.573241,-0.47461 0.969727,-0.47461 0.242185,0 0.449216,0.0479 0.621093,0.14356 0.173826,0.0937 0.31738,0.23828 0.430664,0.43359 m -1.836914,1.14551 c -1e-6,0.39648 0.08105,0.70801 0.243164,0.93457 0.164062,0.22461 0.388671,0.33691 0.673828,0.33691 0.285155,0 0.509764,-0.1123 0.673829,-0.33691 0.164059,-0.22656 0.246091,-0.53809 0.246093,-0.93457 -2e-6,-0.39648 -0.08203,-0.70703 -0.246093,-0.93164 -0.164065,-0.22656 -0.388674,-0.33984 -0.673829,-0.33985 -0.285157,10e-6 -0.509766,0.11329 -0.673828,0.33985 -0.16211,0.22461 -0.243165,0.53516 -0.243164,0.93164"
         style="font-size:6px"
         id="path3345"
         inkscape:connector-curvature="0" />
      <path
         d="m 48.410015,855.6297 0,-1.77539 0.539063,0 0,4.55859 -0.539063,0 0,-0.49218 c -0.113284,0.19531 -0.256838,0.34082 -0.430664,0.43652 -0.171877,0.0937 -0.378908,0.14062 -0.621094,0.14062 -0.396485,0 -0.719727,-0.1582 -0.969726,-0.47461 -0.248048,-0.3164 -0.372071,-0.73242 -0.372071,-1.24804 0,-0.51563 0.124023,-0.93164 0.372071,-1.24805 0.249999,-0.3164 0.573241,-0.47461 0.969726,-0.47461 0.242186,0 0.449217,0.0479 0.621094,0.14356 0.173826,0.0937 0.31738,0.23828 0.430664,0.43359 m -1.836914,1.14551 c -1e-6,0.39648 0.08105,0.70801 0.243164,0.93457 0.164061,0.22461 0.38867,0.33691 0.673828,0.33691 0.285154,0 0.509764,-0.1123 0.673828,-0.33691 0.16406,-0.22656 0.246091,-0.53809 0.246094,-0.93457 -3e-6,-0.39648 -0.08203,-0.70703 -0.246094,-0.93164 -0.164064,-0.22656 -0.388674,-0.33984 -0.673828,-0.33985 -0.285158,10e-6 -0.509767,0.11329 -0.673828,0.33985 -0.16211,0.22461 -0.243165,0.53516 -0.243164,0.93164"
         style="font-size:6px"
         id="path3347"
         inkscape:connector-curvature="0" />
      <path
         d="m 52.502789,854.20001 0,0.93164 1.110351,0 0,0.41895 -1.110351,0 0,1.78125 c -2e-6,0.26758 0.03613,0.43945 0.108398,0.51562 0.07422,0.0762 0.223631,0.11426 0.448242,0.11426 l 0.553711,0 0,0.45117 -0.553711,0 c -0.416017,0 -0.703126,-0.0772 -0.861328,-0.23144 -0.158204,-0.15625 -0.237305,-0.43945 -0.237305,-0.84961 l 0,-1.78125 -0.395507,0 0,-0.41895 0.395507,0 0,-0.93164 0.541993,0"
         style="font-size:6px"
         id="path3349"
         inkscape:connector-curvature="0" />
      <path
         d="m 55.596539,855.50958 c -0.289065,10e-6 -0.51758,0.11329 -0.685547,0.33985 -0.16797,0.22461 -0.251954,0.5332 -0.251953,0.92578 -10e-7,0.39258 0.08301,0.70215 0.249023,0.92871 0.167967,0.22461 0.397459,0.33691 0.688477,0.33691 0.287107,0 0.514646,-0.11328 0.682617,-0.33984 0.167966,-0.22656 0.25195,-0.53516 0.251953,-0.92578 -3e-6,-0.38867 -0.08399,-0.69629 -0.251953,-0.92285 -0.167971,-0.22852 -0.39551,-0.34277 -0.682617,-0.34278 m 0,-0.45703 c 0.468747,0 0.836911,0.15235 1.104492,0.45703 0.267575,0.30469 0.401364,0.72657 0.401367,1.26563 -3e-6,0.53711 -0.133792,0.95898 -0.401367,1.26562 -0.267581,0.30469 -0.635745,0.45703 -1.104492,0.45703 -0.470705,0 -0.839845,-0.15234 -1.107422,-0.45703 -0.265626,-0.30664 -0.398438,-0.72851 -0.398438,-1.26562 0,-0.53906 0.132812,-0.96094 0.398438,-1.26563 0.267577,-0.30468 0.636717,-0.45703 1.107422,-0.45703"
         style="font-size:6px"
         id="path3351"
         inkscape:connector-curvature="0" />
      <path
         d="m 62.548687,854.18243 0,0.57715 c -0.224612,-0.10742 -0.436526,-0.18749 -0.635742,-0.24023 -0.199221,-0.0527 -0.391604,-0.0791 -0.577149,-0.0791 -0.322267,0 -0.57129,0.0625 -0.74707,0.1875 -0.173829,0.125 -0.260743,0.30273 -0.260742,0.5332 -10e-7,0.19336 0.05762,0.33985 0.172851,0.43945 0.117187,0.0977 0.33789,0.17676 0.66211,0.23731 l 0.357422,0.0732 c 0.441403,0.084 0.766598,0.23242 0.975586,0.44531 0.210934,0.21094 0.316402,0.49414 0.316406,0.84961 -4e-6,0.42383 -0.142582,0.74512 -0.427735,0.96387 -0.283205,0.21875 -0.699221,0.32812 -1.248046,0.32812 -0.207033,0 -0.427736,-0.0234 -0.66211,-0.0703 -0.232423,-0.0469 -0.473633,-0.11621 -0.723633,-0.20801 l 0,-0.60937 c 0.240234,0.13476 0.475585,0.23633 0.706055,0.30469 0.230468,0.0684 0.45703,0.10254 0.679688,0.10254 0.337888,0 0.59863,-0.0664 0.782226,-0.19922 0.183591,-0.13282 0.275388,-0.32227 0.275391,-0.56836 -3e-6,-0.21485 -0.06641,-0.38281 -0.199219,-0.50391 -0.130862,-0.12109 -0.346682,-0.21191 -0.647461,-0.27246 l -0.360351,-0.0703 c -0.441408,-0.0879 -0.760744,-0.22559 -0.958008,-0.41309 -0.197266,-0.1875 -0.295899,-0.44824 -0.295899,-0.78223 0,-0.38671 0.135742,-0.6914 0.407227,-0.91406 0.273436,-0.22265 0.649412,-0.33398 1.12793,-0.33398 0.205076,0 0.41406,0.0186 0.626953,0.0557 0.212888,0.0371 0.430661,0.0928 0.65332,0.16699"
         style="font-size:6px"
         id="path3353"
         inkscape:connector-curvature="0" />
      <path
         d="m 64.244976,854.20001 0,0.93164 1.110352,0 0,0.41895 -1.110352,0 0,1.78125 c -10e-7,0.26758 0.03613,0.43945 0.108398,0.51562 0.07422,0.0762 0.223632,0.11426 0.448243,0.11426 l 0.553711,0 0,0.45117 -0.553711,0 c -0.416017,0 -0.703126,-0.0772 -0.861328,-0.23144 -0.158204,-0.15625 -0.237306,-0.43945 -0.237305,-0.84961 l 0,-1.78125 -0.395508,0 0,-0.41895 0.395508,0 0,-0.93164 0.541992,0"
         style="font-size:6px"
         id="path3355"
         inkscape:connector-curvature="0" />
      <path
         d="m 67.968609,855.63556 c -0.06055,-0.0352 -0.126956,-0.0605 -0.199219,-0.0762 -0.07032,-0.0176 -0.14844,-0.0264 -0.234375,-0.0264 -0.304689,0 -0.539064,0.0996 -0.703125,0.29883 -0.16211,0.19727 -0.243165,0.48145 -0.243164,0.85254 l 0,1.72851 -0.541992,0 0,-3.28125 0.541992,0 0,0.50977 c 0.11328,-0.19922 0.260741,-0.34668 0.442383,-0.44238 0.181639,-0.0977 0.402342,-0.14649 0.662109,-0.14649 0.03711,0 0.07812,0.003 0.123047,0.009 0.04492,0.004 0.09472,0.0108 0.149414,0.0205 l 0.0029,0.55371"
         style="font-size:6px"
         id="path3357"
         inkscape:connector-curvature="0" />
      <path
         d="m 70.025249,854.62189 -0.802734,2.17676 1.608399,0 -0.805665,-2.17676 m -0.333984,-0.58301 0.670899,0 1.666992,4.37402 -0.615235,0 -0.398437,-1.12207 -1.97168,0 -0.398437,1.12207 -0.624024,0 1.669922,-4.37402"
         style="font-size:6px"
         id="path3359"
         inkscape:connector-curvature="0" />
      <path
         d="m 73.162945,857.92072 0,1.74023 -0.541992,0 0,-4.5293 0.541992,0 0,0.49805 c 0.11328,-0.19531 0.255858,-0.33984 0.427734,-0.43359 0.173827,-0.0957 0.380858,-0.14356 0.621094,-0.14356 0.398435,0 0.721677,0.15821 0.969726,0.47461 0.249997,0.31641 0.374997,0.73242 0.375,1.24805 -3e-6,0.51562 -0.125003,0.93164 -0.375,1.24804 -0.248049,0.31641 -0.571291,0.47461 -0.969726,0.47461 -0.240236,0 -0.447267,-0.0469 -0.621094,-0.14062 -0.171876,-0.0957 -0.314454,-0.24121 -0.427734,-0.43652 m 1.833984,-1.14551 c -3e-6,-0.39648 -0.08203,-0.70703 -0.246094,-0.93164 -0.162111,-0.22656 -0.385744,-0.33984 -0.670898,-0.33985 -0.285158,10e-6 -0.509767,0.11329 -0.673828,0.33985 -0.162111,0.22461 -0.243165,0.53516 -0.243164,0.93164 -10e-7,0.39648 0.08105,0.70801 0.243164,0.93457 0.164061,0.22461 0.38867,0.33691 0.673828,0.33691 0.285154,0 0.508787,-0.1123 0.670898,-0.33691 0.16406,-0.22656 0.246091,-0.53809 0.246094,-0.93457"
         style="font-size:6px"
         id="path3361"
         inkscape:connector-curvature="0" />
      <path
         d="m 76.971539,857.92072 0,1.74023 -0.541993,0 0,-4.5293 0.541993,0 0,0.49805 c 0.11328,-0.19531 0.255858,-0.33984 0.427734,-0.43359 0.173826,-0.0957 0.380857,-0.14356 0.621094,-0.14356 0.398435,0 0.721676,0.15821 0.969726,0.47461 0.249997,0.31641 0.374997,0.73242 0.375,1.24805 -3e-6,0.51562 -0.125003,0.93164 -0.375,1.24804 -0.24805,0.31641 -0.571291,0.47461 -0.969726,0.47461 -0.240237,0 -0.447268,-0.0469 -0.621094,-0.14062 -0.171876,-0.0957 -0.314454,-0.24121 -0.427734,-0.43652 m 1.833984,-1.14551 c -3e-6,-0.39648 -0.08203,-0.70703 -0.246094,-0.93164 -0.162112,-0.22656 -0.385744,-0.33984 -0.670898,-0.33985 -0.285158,10e-6 -0.509767,0.11329 -0.673828,0.33985 -0.162111,0.22461 -0.243166,0.53516 -0.243164,0.93164 -2e-6,0.39648 0.08105,0.70801 0.243164,0.93457 0.164061,0.22461 0.38867,0.33691 0.673828,0.33691 0.285154,0 0.508786,-0.1123 0.670898,-0.33691 0.16406,-0.22656 0.246091,-0.53809 0.246094,-0.93457"
         style="font-size:6px"
         id="path3363"
         inkscape:connector-curvature="0" />
      <path
         d="m 82.350445,855.22833 0,0.50977 c -0.152346,-0.0781 -0.310549,-0.13672 -0.47461,-0.17578 -0.164064,-0.0391 -0.333986,-0.0586 -0.509765,-0.0586 -0.26758,10e-6 -0.468751,0.041 -0.603516,0.12305 -0.132813,0.082 -0.199219,0.20508 -0.199219,0.36914 0,0.125 0.04785,0.22364 0.143555,0.2959 0.0957,0.0703 0.288085,0.1377 0.577149,0.20215 l 0.18457,0.041 c 0.38281,0.082 0.654294,0.19825 0.814453,0.34864 0.162107,0.14843 0.243161,0.35644 0.243164,0.62402 -3e-6,0.30469 -0.121096,0.5459 -0.363281,0.72363 -0.240237,0.17774 -0.571291,0.2666 -0.993164,0.2666 -0.175783,0 -0.359376,-0.0176 -0.550782,-0.0527 -0.189453,-0.0332 -0.389648,-0.084 -0.600585,-0.15234 l 0,-0.55664 c 0.199218,0.10351 0.395507,0.18164 0.588867,0.23437 0.193358,0.0508 0.384764,0.0762 0.574218,0.0762 0.253905,0 0.449217,-0.043 0.585938,-0.1289 0.136717,-0.0879 0.205076,-0.21094 0.205078,-0.36914 -2e-6,-0.14649 -0.04981,-0.25879 -0.149414,-0.33692 -0.09766,-0.0781 -0.313478,-0.15332 -0.647461,-0.22558 l -0.1875,-0.0439 c -0.333985,-0.0703 -0.575196,-0.17773 -0.723633,-0.32227 -0.148438,-0.14648 -0.222656,-0.34667 -0.222656,-0.60058 0,-0.30859 0.109375,-0.54687 0.328125,-0.71485 0.218749,-0.16796 0.529296,-0.25195 0.931641,-0.25195 0.199217,0 0.386716,0.0146 0.5625,0.0439 0.175779,0.0293 0.337888,0.0732 0.486328,0.13183"
         style="font-size:6px"
         id="path3365"
         inkscape:connector-curvature="0" />
      <path
         d="m 83.410992,854.03888 0.591797,0 0,4.37402 -0.591797,0 0,-4.37402"
         style="font-size:6px"
         id="path3367"
         inkscape:connector-curvature="0" />
      <path
         d="m 87.884624,856.43243 0,1.98047 -0.539062,0 0,-1.96289 c -3e-6,-0.31054 -0.06055,-0.54296 -0.181641,-0.69726 -0.121096,-0.1543 -0.302736,-0.23145 -0.544922,-0.23145 -0.291017,0 -0.520509,0.0928 -0.688476,0.27832 -0.16797,0.18555 -0.251954,0.43848 -0.251953,0.75879 l 0,1.85449 -0.541992,0 0,-3.28125 0.541992,0 0,0.50977 c 0.128905,-0.19726 0.280272,-0.34472 0.454101,-0.44238 0.17578,-0.0977 0.377928,-0.14649 0.606446,-0.14649 0.37695,0 0.662106,0.11719 0.855468,0.35156 0.193357,0.23243 0.290036,0.5752 0.290039,1.02832"
         style="font-size:6px"
         id="path3369"
         inkscape:connector-curvature="0" />
      <path
         d="m 91.057476,855.22833 0,0.50977 c -0.152346,-0.0781 -0.310549,-0.13672 -0.474609,-0.17578 -0.164065,-0.0391 -0.333987,-0.0586 -0.509766,-0.0586 -0.267579,10e-6 -0.468751,0.041 -0.603516,0.12305 -0.132813,0.082 -0.199219,0.20508 -0.199218,0.36914 -10e-7,0.125 0.04785,0.22364 0.143554,0.2959 0.0957,0.0703 0.288085,0.1377 0.577149,0.20215 l 0.18457,0.041 c 0.38281,0.082 0.654295,0.19825 0.814453,0.34864 0.162107,0.14843 0.243161,0.35644 0.243164,0.62402 -3e-6,0.30469 -0.121096,0.5459 -0.363281,0.72363 -0.240237,0.17774 -0.571291,0.2666 -0.993164,0.2666 -0.175783,0 -0.359376,-0.0176 -0.550781,-0.0527 -0.189454,-0.0332 -0.389649,-0.084 -0.600586,-0.15234 l 0,-0.55664 c 0.199218,0.10351 0.395507,0.18164 0.588867,0.23437 0.193358,0.0508 0.384764,0.0762 0.574219,0.0762 0.253904,0 0.449217,-0.043 0.585937,-0.1289 0.136717,-0.0879 0.205076,-0.21094 0.205078,-0.36914 -2e-6,-0.14649 -0.04981,-0.25879 -0.149414,-0.33692 -0.09766,-0.0781 -0.313478,-0.15332 -0.647461,-0.22558 l -0.1875,-0.0439 c -0.333985,-0.0703 -0.575196,-0.17773 -0.723632,-0.32227 -0.148438,-0.14648 -0.222657,-0.34667 -0.222657,-0.60058 0,-0.30859 0.109375,-0.54687 0.328125,-0.71485 0.218749,-0.16796 0.529296,-0.25195 0.931641,-0.25195 0.199217,0 0.386717,0.0146 0.5625,0.0439 0.175779,0.0293 0.337888,0.0732 0.486328,0.13183"
         style="font-size:6px"
         id="path3371"
         inkscape:connector-curvature="0" />
      <path
         d="m 92.627789,854.20001 0,0.93164 1.110351,0 0,0.41895 -1.110351,0 0,1.78125 c -2e-6,0.26758 0.03613,0.43945 0.108398,0.51562 0.07422,0.0762 0.223631,0.11426 0.448242,0.11426 l 0.553711,0 0,0.45117 -0.553711,0 c -0.416017,0 -0.703126,-0.0772 -0.861328,-0.23144 -0.158204,-0.15625 -0.237305,-0.43945 -0.237305,-0.84961 l 0,-1.78125 -0.395507,0 0,-0.41895 0.395507,0 0,-0.93164 0.541993,0"
         style="font-size:6px"
         id="path3373"
         inkscape:connector-curvature="0" />
      <path
         d="m 95.941265,856.76349 c -0.435548,0 -0.737306,0.0498 -0.905273,0.14941 -0.16797,0.0996 -0.251954,0.26954 -0.251953,0.50977 -1e-6,0.19141 0.0625,0.34375 0.1875,0.45703 0.126951,0.11133 0.298826,0.16699 0.515625,0.16699 0.298826,0 0.538083,-0.10547 0.717773,-0.3164 0.181638,-0.21289 0.272458,-0.49512 0.272461,-0.84668 l 0,-0.12012 -0.536133,0 m 1.075195,-0.22266 0,1.87207 -0.539062,0 0,-0.49804 c -0.123049,0.19922 -0.27637,0.34668 -0.459961,0.44238 -0.183596,0.0937 -0.408205,0.14062 -0.673828,0.14062 -0.335939,0 -0.603517,-0.0937 -0.802735,-0.28125 -0.197266,-0.18945 -0.295898,-0.44238 -0.295898,-0.75879 0,-0.36913 0.123046,-0.64745 0.369141,-0.83496 0.248046,-0.18749 0.617186,-0.28124 1.107422,-0.28125 l 0.755859,0 0,-0.0527 c -3e-6,-0.24805 -0.08203,-0.43945 -0.246094,-0.57422 -0.162111,-0.13672 -0.390627,-0.20507 -0.685547,-0.20508 -0.187501,1e-5 -0.370118,0.0225 -0.547851,0.0674 -0.177736,0.0449 -0.348634,0.1123 -0.512696,0.20214 l 0,-0.49804 c 0.197265,-0.0762 0.388671,-0.13281 0.574219,-0.16992 0.185546,-0.0391 0.36621,-0.0586 0.541992,-0.0586 0.474608,0 0.829099,0.12305 1.063477,0.36914 0.234372,0.2461 0.351559,0.61914 0.351562,1.11914"
         style="font-size:6px"
         id="path3375"
         inkscape:connector-curvature="0" />
      <path
         d="m 98.129742,853.85431 0.539062,0 0,4.55859 -0.539062,0 0,-4.55859"
         style="font-size:6px"
         id="path3377"
         inkscape:connector-curvature="0" />
      <path
         d="m 99.793804,853.85431 0.539066,0 0,4.55859 -0.539066,0 0,-4.55859"
         style="font-size:6px"
         id="path3379"
         inkscape:connector-curvature="0" />
      <path
         d="m 101.59556,857.66876 0.61817,0 0,0.50391 -0.48047,0.9375 -0.37793,0 0.24023,-0.9375 0,-0.50391"
         style="font-size:6px"
         id="path3381"
         inkscape:connector-curvature="0" />
      <path
         d="m 41.091656,861.68243 0,0.57715 c -0.224613,-0.10742 -0.436526,-0.18749 -0.635742,-0.24023 -0.199222,-0.0527 -0.391604,-0.0791 -0.577149,-0.0791 -0.322267,0 -0.57129,0.0625 -0.74707,0.1875 -0.173829,0.125 -0.260743,0.30273 -0.260742,0.5332 -10e-7,0.19336 0.05762,0.33985 0.172851,0.43945 0.117186,0.0977 0.337889,0.17676 0.66211,0.23731 l 0.357421,0.0732 c 0.441404,0.084 0.766599,0.23242 0.975586,0.44531 0.210934,0.21094 0.316403,0.49414 0.316407,0.84961 -4e-6,0.42383 -0.142582,0.74512 -0.427735,0.96387 -0.283206,0.21875 -0.699221,0.32812 -1.248047,0.32812 -0.207032,0 -0.427735,-0.0234 -0.662109,-0.0703 -0.232423,-0.0469 -0.473633,-0.11621 -0.723633,-0.20801 l 0,-0.60937 c 0.240234,0.13476 0.475585,0.23633 0.706055,0.30469 0.230467,0.0684 0.45703,0.10254 0.679687,0.10254 0.337889,0 0.598631,-0.0664 0.782227,-0.19922 0.183591,-0.13282 0.275388,-0.32227 0.275391,-0.56836 -3e-6,-0.21485 -0.06641,-0.38281 -0.199219,-0.50391 -0.130862,-0.12109 -0.346682,-0.21191 -0.647461,-0.27246 l -0.360352,-0.0703 c -0.441407,-0.0879 -0.760743,-0.22559 -0.958008,-0.41309 -0.197266,-0.1875 -0.295898,-0.44824 -0.295898,-0.78223 0,-0.38671 0.135742,-0.6914 0.407227,-0.91406 0.273436,-0.22265 0.649412,-0.33398 1.127929,-0.33398 0.205076,0 0.41406,0.0186 0.626953,0.0557 0.212888,0.0371 0.430661,0.0928 0.653321,0.16699"
         style="font-size:6px"
         id="path3383"
         inkscape:connector-curvature="0" />
      <path
         d="m 42.787945,861.70001 0,0.93164 1.110351,0 0,0.41895 -1.110351,0 0,1.78125 c -10e-7,0.26758 0.03613,0.43945 0.108398,0.51562 0.07422,0.0762 0.223632,0.11426 0.448242,0.11426 l 0.553711,0 0,0.45117 -0.553711,0 c -0.416016,0 -0.703126,-0.0772 -0.861328,-0.23144 -0.158203,-0.15625 -0.237305,-0.43945 -0.237304,-0.84961 l 0,-1.78125 -0.395508,0 0,-0.41895 0.395508,0 0,-0.93164 0.541992,0"
         style="font-size:6px"
         id="path3385"
         inkscape:connector-curvature="0" />
      <path
         d="m 46.511578,863.13556 c -0.06055,-0.0352 -0.126956,-0.0605 -0.199219,-0.0762 -0.07032,-0.0176 -0.14844,-0.0264 -0.234375,-0.0264 -0.304689,0 -0.539064,0.0996 -0.703125,0.29883 -0.162111,0.19727 -0.243165,0.48145 -0.243164,0.85254 l 0,1.72851 -0.541992,0 0,-3.28125 0.541992,0 0,0.50977 c 0.11328,-0.19922 0.260741,-0.34668 0.442383,-0.44238 0.181639,-0.0977 0.402341,-0.14649 0.662109,-0.14649 0.03711,0 0.07812,0.003 0.123047,0.009 0.04492,0.004 0.09472,0.0108 0.149414,0.0205 l 0.0029,0.55371"
         style="font-size:6px"
         id="path3387"
         inkscape:connector-curvature="0" />
      <path
         d="m 47.698101,862.02521 0,1.64355 0.744141,0 c 0.275388,0 0.488279,-0.0713 0.638672,-0.21386 0.150387,-0.14258 0.225583,-0.34571 0.225585,-0.60938 -2e-6,-0.26172 -0.0752,-0.46386 -0.225585,-0.60645 -0.150393,-0.14257 -0.363284,-0.21386 -0.638672,-0.21386 l -0.744141,0 m -0.591797,-0.48633 1.335938,0 c 0.490232,0 0.860348,0.11133 1.110351,0.33398 0.25195,0.22071 0.377927,0.54493 0.37793,0.97266 -3e-6,0.43164 -0.12598,0.75781 -0.37793,0.97852 -0.250003,0.2207 -0.620119,0.33105 -1.110351,0.33105 l -0.744141,0 0,1.75781 -0.591797,0 0,-4.37402"
         style="font-size:6px"
         id="path3389"
         inkscape:connector-curvature="0" />
      <path
         d="m 52.069195,866.21759 c -0.152346,0.39062 -0.300783,0.64551 -0.445313,0.76465 -0.144532,0.11914 -0.337891,0.17871 -0.580078,0.17871 l -0.430664,0 0,-0.45117 0.316406,0 c 0.148437,0 0.263671,-0.0352 0.345703,-0.10547 0.08203,-0.0703 0.172851,-0.23633 0.272461,-0.49805 l 0.09668,-0.24609 -1.327148,-3.22852 0.571289,0 1.02539,2.56641 1.025391,-2.56641 0.571289,0 -1.441406,3.58594"
         style="font-size:6px"
         id="path3391"
         inkscape:connector-curvature="0" />
      <path
         d="m 54.787945,861.70001 0,0.93164 1.110351,0 0,0.41895 -1.110351,0 0,1.78125 c -10e-7,0.26758 0.03613,0.43945 0.108398,0.51562 0.07422,0.0762 0.223632,0.11426 0.448242,0.11426 l 0.553711,0 0,0.45117 -0.553711,0 c -0.416016,0 -0.703126,-0.0772 -0.861328,-0.23144 -0.158203,-0.15625 -0.237305,-0.43945 -0.237304,-0.84961 l 0,-1.78125 -0.395508,0 0,-0.41895 0.395508,0 0,-0.93164 0.541992,0"
         style="font-size:6px"
         id="path3393"
         inkscape:connector-curvature="0" />
      <path
         d="m 59.337749,863.93243 0,1.98047 -0.539062,0 0,-1.96289 c -3e-6,-0.31054 -0.06055,-0.54296 -0.181641,-0.69726 -0.121096,-0.1543 -0.302736,-0.23145 -0.544922,-0.23145 -0.291017,0 -0.520509,0.0928 -0.688476,0.27832 -0.16797,0.18555 -0.251954,0.43848 -0.251953,0.75879 l 0,1.85449 -0.541992,0 0,-4.55859 0.541992,0 0,1.78711 c 0.128905,-0.19726 0.280272,-0.34472 0.454101,-0.44238 0.17578,-0.0977 0.377928,-0.14649 0.606446,-0.14649 0.37695,0 0.662106,0.11719 0.855468,0.35156 0.193357,0.23243 0.290036,0.5752 0.290039,1.02832"
         style="font-size:6px"
         id="path3395"
         inkscape:connector-curvature="0" />
      <path
         d="m 61.690289,863.00958 c -0.289065,10e-6 -0.51758,0.11329 -0.685547,0.33985 -0.16797,0.22461 -0.251954,0.5332 -0.251953,0.92578 -10e-7,0.39258 0.08301,0.70215 0.249023,0.92871 0.167967,0.22461 0.397459,0.33691 0.688477,0.33691 0.287107,0 0.514646,-0.11328 0.682617,-0.33984 0.167966,-0.22656 0.25195,-0.53516 0.251953,-0.92578 -3e-6,-0.38867 -0.08399,-0.69629 -0.251953,-0.92285 -0.167971,-0.22852 -0.39551,-0.34277 -0.682617,-0.34278 m 0,-0.45703 c 0.468747,0 0.836911,0.15235 1.104492,0.45703 0.267575,0.30469 0.401364,0.72657 0.401367,1.26563 -3e-6,0.53711 -0.133792,0.95898 -0.401367,1.26562 -0.267581,0.30469 -0.635745,0.45703 -1.104492,0.45703 -0.470705,0 -0.839845,-0.15234 -1.107422,-0.45703 -0.265626,-0.30664 -0.398438,-0.72851 -0.398438,-1.26562 0,-0.53906 0.132812,-0.96094 0.398438,-1.26563 0.267577,-0.30468 0.636717,-0.45703 1.107422,-0.45703"
         style="font-size:6px"
         id="path3397"
         inkscape:connector-curvature="0" />
      <path
         d="m 66.814312,863.93243 0,1.98047 -0.539063,0 0,-1.96289 c -2e-6,-0.31054 -0.06055,-0.54296 -0.18164,-0.69726 -0.121096,-0.1543 -0.302737,-0.23145 -0.544922,-0.23145 -0.291017,0 -0.520509,0.0928 -0.688477,0.27832 -0.16797,0.18555 -0.251954,0.43848 -0.251953,0.75879 l 0,1.85449 -0.541992,0 0,-3.28125 0.541992,0 0,0.50977 c 0.128905,-0.19726 0.280272,-0.34472 0.454102,-0.44238 0.175779,-0.0977 0.377928,-0.14649 0.606445,-0.14649 0.376951,0 0.662107,0.11719 0.855469,0.35156 0.193356,0.23243 0.290036,0.5752 0.290039,1.02832"
         style="font-size:6px"
         id="path3399"
         inkscape:connector-curvature="0" />
      <path
         d="m 67.918804,861.53888 0.591797,0 0,3.87598 2.129883,0 0,0.49804 -2.72168,0 0,-4.37402"
         style="font-size:6px"
         id="path3401"
         inkscape:connector-curvature="0" />
      <path
         d="m 72.401226,863.00958 c -0.289064,10e-6 -0.517579,0.11329 -0.685547,0.33985 -0.16797,0.22461 -0.251954,0.5332 -0.251953,0.92578 -10e-7,0.39258 0.08301,0.70215 0.249023,0.92871 0.167968,0.22461 0.39746,0.33691 0.688477,0.33691 0.287107,0 0.514646,-0.11328 0.682617,-0.33984 0.167966,-0.22656 0.251951,-0.53516 0.251953,-0.92578 -2e-6,-0.38867 -0.08399,-0.69629 -0.251953,-0.92285 -0.167971,-0.22852 -0.39551,-0.34277 -0.682617,-0.34278 m 0,-0.45703 c 0.468748,0 0.836911,0.15235 1.104492,0.45703 0.267575,0.30469 0.401364,0.72657 0.401367,1.26563 -3e-6,0.53711 -0.133792,0.95898 -0.401367,1.26562 -0.267581,0.30469 -0.635744,0.45703 -1.104492,0.45703 -0.470704,0 -0.839845,-0.15234 -1.107422,-0.45703 -0.265625,-0.30664 -0.398438,-0.72851 -0.398437,-1.26562 -10e-7,-0.53906 0.132812,-0.96094 0.398437,-1.26563 0.267577,-0.30468 0.636718,-0.45703 1.107422,-0.45703"
         style="font-size:6px"
         id="path3403"
         inkscape:connector-curvature="0" />
      <path
         d="m 76.288921,864.26349 c -0.435548,0 -0.737306,0.0498 -0.905273,0.14941 -0.16797,0.0996 -0.251954,0.26954 -0.251953,0.50977 -10e-7,0.19141 0.0625,0.34375 0.1875,0.45703 0.126952,0.11133 0.298827,0.16699 0.515625,0.16699 0.298826,0 0.538084,-0.10547 0.717773,-0.3164 0.181638,-0.21289 0.272459,-0.49512 0.272461,-0.84668 l 0,-0.12012 -0.536133,0 m 1.075196,-0.22266 0,1.87207 -0.539063,0 0,-0.49804 c -0.123049,0.19922 -0.276369,0.34668 -0.459961,0.44238 -0.183595,0.0937 -0.408205,0.14062 -0.673828,0.14062 -0.335939,0 -0.603516,-0.0937 -0.802734,-0.28125 -0.197266,-0.18945 -0.295899,-0.44238 -0.295899,-0.75879 0,-0.36913 0.123047,-0.64745 0.369141,-0.83496 0.248046,-0.18749 0.617186,-0.28124 1.107422,-0.28125 l 0.755859,0 0,-0.0527 c -2e-6,-0.24805 -0.08203,-0.43945 -0.246094,-0.57422 -0.162111,-0.13672 -0.390627,-0.20507 -0.685546,-0.20508 -0.187502,1e-5 -0.370119,0.0225 -0.547852,0.0674 -0.177735,0.0449 -0.348634,0.1123 -0.512695,0.20214 l 0,-0.49804 c 0.197264,-0.0762 0.388671,-0.13281 0.574218,-0.16992 0.185546,-0.0391 0.36621,-0.0586 0.541993,-0.0586 0.474607,0 0.829099,0.12305 1.063476,0.36914 0.234372,0.2461 0.35156,0.61914 0.351563,1.11914"
         style="font-size:6px"
         id="path3405"
         inkscape:connector-curvature="0" />
      <path
         d="m 80.636578,863.1297 0,-1.77539 0.539062,0 0,4.55859 -0.539062,0 0,-0.49218 c -0.113284,0.19531 -0.256839,0.34082 -0.430664,0.43652 -0.171878,0.0937 -0.378909,0.14062 -0.621094,0.14062 -0.396486,0 -0.719728,-0.1582 -0.969727,-0.47461 -0.248047,-0.3164 -0.37207,-0.73242 -0.37207,-1.24804 0,-0.51563 0.124023,-0.93164 0.37207,-1.24805 0.249999,-0.3164 0.573241,-0.47461 0.969727,-0.47461 0.242185,0 0.449216,0.0479 0.621094,0.14356 0.173825,0.0937 0.31738,0.23828 0.430664,0.43359 m -1.836914,1.14551 c -1e-6,0.39648 0.08105,0.70801 0.243164,0.93457 0.164061,0.22461 0.38867,0.33691 0.673828,0.33691 0.285154,0 0.509763,-0.1123 0.673828,-0.33691 0.16406,-0.22656 0.246091,-0.53809 0.246094,-0.93457 -3e-6,-0.39648 -0.08203,-0.70703 -0.246094,-0.93164 -0.164065,-0.22656 -0.388674,-0.33984 -0.673828,-0.33985 -0.285158,10e-6 -0.509767,0.11329 -0.673828,0.33985 -0.162111,0.22461 -0.243165,0.53516 -0.243164,0.93164"
         style="font-size:6px"
         id="path3407"
         inkscape:connector-curvature="0" />
      <path
         d="m 85.092632,864.13751 0,0.26367 -2.478515,0 c 0.02344,0.3711 0.134764,0.6543 0.333984,0.84961 0.20117,0.19336 0.480467,0.29004 0.837891,0.29004 0.207029,0 0.407224,-0.0254 0.600586,-0.0762 0.195309,-0.0508 0.388668,-0.12695 0.580078,-0.22851 l 0,0.50976 c -0.193363,0.082 -0.391605,0.14453 -0.594727,0.1875 -0.203127,0.043 -0.409182,0.0644 -0.618164,0.0644 -0.523439,0 -0.938478,-0.15234 -1.245117,-0.45703 -0.304688,-0.30468 -0.457032,-0.71679 -0.457031,-1.23633 -10e-7,-0.5371 0.14453,-0.96288 0.433593,-1.27734 0.291015,-0.3164 0.682616,-0.47461 1.174805,-0.47461 0.441404,0 0.790036,0.14258 1.045899,0.42774 0.257809,0.2832 0.386715,0.66894 0.386718,1.15722 m -0.539062,-0.1582 c -0.0039,-0.29492 -0.08692,-0.53027 -0.249024,-0.70606 -0.160158,-0.17577 -0.373049,-0.26366 -0.638672,-0.26367 -0.300782,10e-6 -0.541993,0.085 -0.723632,0.25489 -0.179689,0.16992 -0.283204,0.40918 -0.310547,0.71777 l 1.921875,-0.003"
         style="font-size:6px"
         id="path3409"
         inkscape:connector-curvature="0" />
      <path
         d="m 87.878765,863.13556 c -0.06055,-0.0352 -0.126955,-0.0605 -0.199219,-0.0762 -0.07031,-0.0176 -0.148439,-0.0264 -0.234375,-0.0264 -0.304689,0 -0.539064,0.0996 -0.703125,0.29883 -0.16211,0.19727 -0.243165,0.48145 -0.243164,0.85254 l 0,1.72851 -0.541992,0 0,-3.28125 0.541992,0 0,0.50977 c 0.11328,-0.19922 0.260741,-0.34668 0.442383,-0.44238 0.181639,-0.0977 0.402342,-0.14649 0.662109,-0.14649 0.03711,0 0.07812,0.003 0.123047,0.009 0.04492,0.004 0.09472,0.0108 0.149414,0.0205 l 0.0029,0.55371"
         style="font-size:6px"
         id="path3411"
         inkscape:connector-curvature="0" />
      <path
         d="m 92.554546,862.15118 0,1.63184 1.631836,0 0,0.49805 -1.631836,0 0,1.63183 -0.492187,0 0,-1.63183 -1.631836,0 0,-0.49805 1.631836,0 0,-1.63184 0.492187,0"
         style="font-size:6px"
         id="path3413"
         inkscape:connector-curvature="0" />
      <path
         d="m 41.091656,869.18243 0,0.57715 c -0.224613,-0.10742 -0.436526,-0.18749 -0.635742,-0.24023 -0.199222,-0.0527 -0.391604,-0.0791 -0.577149,-0.0791 -0.322267,0 -0.57129,0.0625 -0.74707,0.1875 -0.173829,0.125 -0.260743,0.30273 -0.260742,0.5332 -10e-7,0.19336 0.05762,0.33985 0.172851,0.43945 0.117186,0.0977 0.337889,0.17676 0.66211,0.23731 l 0.357421,0.0732 c 0.441404,0.084 0.766599,0.23242 0.975586,0.44531 0.210934,0.21094 0.316403,0.49414 0.316407,0.84961 -4e-6,0.42383 -0.142582,0.74512 -0.427735,0.96387 -0.283206,0.21875 -0.699221,0.32812 -1.248047,0.32812 -0.207032,0 -0.427735,-0.0234 -0.662109,-0.0703 -0.232423,-0.0469 -0.473633,-0.11621 -0.723633,-0.20801 l 0,-0.60937 c 0.240234,0.13476 0.475585,0.23633 0.706055,0.30469 0.230467,0.0684 0.45703,0.10254 0.679687,0.10254 0.337889,0 0.598631,-0.0664 0.782227,-0.19922 0.183591,-0.13282 0.275388,-0.32227 0.275391,-0.56836 -3e-6,-0.21485 -0.06641,-0.38281 -0.199219,-0.50391 -0.130862,-0.12109 -0.346682,-0.21191 -0.647461,-0.27246 l -0.360352,-0.0703 c -0.441407,-0.0879 -0.760743,-0.22559 -0.958008,-0.41309 -0.197266,-0.1875 -0.295898,-0.44824 -0.295898,-0.78223 0,-0.38671 0.135742,-0.6914 0.407227,-0.91406 0.273436,-0.22265 0.649412,-0.33398 1.127929,-0.33398 0.205076,0 0.41406,0.0186 0.626953,0.0557 0.212888,0.0371 0.430661,0.0928 0.653321,0.16699"
         style="font-size:6px"
         id="path3415"
         inkscape:connector-curvature="0" />
      <path
         d="m 42.787945,869.20001 0,0.93164 1.110351,0 0,0.41895 -1.110351,0 0,1.78125 c -10e-7,0.26758 0.03613,0.43945 0.108398,0.51562 0.07422,0.0762 0.223632,0.11426 0.448242,0.11426 l 0.553711,0 0,0.45117 -0.553711,0 c -0.416016,0 -0.703126,-0.0772 -0.861328,-0.23144 -0.158203,-0.15625 -0.237305,-0.43945 -0.237304,-0.84961 l 0,-1.78125 -0.395508,0 0,-0.41895 0.395508,0 0,-0.93164 0.541992,0"
         style="font-size:6px"
         id="path3417"
         inkscape:connector-curvature="0" />
      <path
         d="m 46.511578,870.63556 c -0.06055,-0.0352 -0.126956,-0.0605 -0.199219,-0.0762 -0.07032,-0.0176 -0.14844,-0.0264 -0.234375,-0.0264 -0.304689,0 -0.539064,0.0996 -0.703125,0.29883 -0.162111,0.19727 -0.243165,0.48145 -0.243164,0.85254 l 0,1.72851 -0.541992,0 0,-3.28125 0.541992,0 0,0.50977 c 0.11328,-0.19922 0.260741,-0.34668 0.442383,-0.44238 0.181639,-0.0977 0.402341,-0.14649 0.662109,-0.14649 0.03711,0 0.07812,0.003 0.123047,0.009 0.04492,0.004 0.09472,0.0108 0.149414,0.0205 l 0.0029,0.55371"
         style="font-size:6px"
         id="path3419"
         inkscape:connector-curvature="0" />
      <path
         d="m 47.698101,869.52521 0,1.64355 0.744141,0 c 0.275388,0 0.488279,-0.0713 0.638672,-0.21386 0.150387,-0.14258 0.225583,-0.34571 0.225585,-0.60938 -2e-6,-0.26172 -0.0752,-0.46386 -0.225585,-0.60645 -0.150393,-0.14257 -0.363284,-0.21386 -0.638672,-0.21386 l -0.744141,0 m -0.591797,-0.48633 1.335938,0 c 0.490232,0 0.860348,0.11133 1.110351,0.33398 0.25195,0.22071 0.377927,0.54493 0.37793,0.97266 -3e-6,0.43164 -0.12598,0.75781 -0.37793,0.97852 -0.250003,0.2207 -0.620119,0.33105 -1.110351,0.33105 l -0.744141,0 0,1.75781 -0.591797,0 0,-4.37402"
         style="font-size:6px"
         id="path3421"
         inkscape:connector-curvature="0" />
      <path
         d="m 52.069195,873.71759 c -0.152346,0.39062 -0.300783,0.64551 -0.445313,0.76465 -0.144532,0.11914 -0.337891,0.17871 -0.580078,0.17871 l -0.430664,0 0,-0.45117 0.316406,0 c 0.148437,0 0.263671,-0.0352 0.345703,-0.10547 0.08203,-0.0703 0.172851,-0.23633 0.272461,-0.49805 l 0.09668,-0.24609 -1.327148,-3.22852 0.571289,0 1.02539,2.56641 1.025391,-2.56641 0.571289,0 -1.441406,3.58594"
         style="font-size:6px"
         id="path3423"
         inkscape:connector-curvature="0" />
      <path
         d="m 54.787945,869.20001 0,0.93164 1.110351,0 0,0.41895 -1.110351,0 0,1.78125 c -10e-7,0.26758 0.03613,0.43945 0.108398,0.51562 0.07422,0.0762 0.223632,0.11426 0.448242,0.11426 l 0.553711,0 0,0.45117 -0.553711,0 c -0.416016,0 -0.703126,-0.0772 -0.861328,-0.23144 -0.158203,-0.15625 -0.237305,-0.43945 -0.237304,-0.84961 l 0,-1.78125 -0.395508,0 0,-0.41895 0.395508,0 0,-0.93164 0.541992,0"
         style="font-size:6px"
         id="path3425"
         inkscape:connector-curvature="0" />
      <path
         d="m 59.337749,871.43243 0,1.98047 -0.539062,0 0,-1.96289 c -3e-6,-0.31054 -0.06055,-0.54296 -0.181641,-0.69726 -0.121096,-0.1543 -0.302736,-0.23145 -0.544922,-0.23145 -0.291017,0 -0.520509,0.0928 -0.688476,0.27832 -0.16797,0.18555 -0.251954,0.43848 -0.251953,0.75879 l 0,1.85449 -0.541992,0 0,-4.55859 0.541992,0 0,1.78711 c 0.128905,-0.19726 0.280272,-0.34472 0.454101,-0.44238 0.17578,-0.0977 0.377928,-0.14649 0.606446,-0.14649 0.37695,0 0.662106,0.11719 0.855468,0.35156 0.193357,0.23243 0.290036,0.5752 0.290039,1.02832"
         style="font-size:6px"
         id="path3427"
         inkscape:connector-curvature="0" />
      <path
         d="m 61.690289,870.50958 c -0.289065,10e-6 -0.51758,0.11329 -0.685547,0.33985 -0.16797,0.22461 -0.251954,0.5332 -0.251953,0.92578 -10e-7,0.39258 0.08301,0.70215 0.249023,0.92871 0.167967,0.22461 0.397459,0.33691 0.688477,0.33691 0.287107,0 0.514646,-0.11328 0.682617,-0.33984 0.167966,-0.22656 0.25195,-0.53516 0.251953,-0.92578 -3e-6,-0.38867 -0.08399,-0.69629 -0.251953,-0.92285 -0.167971,-0.22852 -0.39551,-0.34277 -0.682617,-0.34278 m 0,-0.45703 c 0.468747,0 0.836911,0.15235 1.104492,0.45703 0.267575,0.30469 0.401364,0.72657 0.401367,1.26563 -3e-6,0.53711 -0.133792,0.95898 -0.401367,1.26562 -0.267581,0.30469 -0.635745,0.45703 -1.104492,0.45703 -0.470705,0 -0.839845,-0.15234 -1.107422,-0.45703 -0.265626,-0.30664 -0.398438,-0.72851 -0.398438,-1.26562 0,-0.53906 0.132812,-0.96094 0.398438,-1.26563 0.267577,-0.30468 0.636717,-0.45703 1.107422,-0.45703"
         style="font-size:6px"
         id="path3429"
         inkscape:connector-curvature="0" />
      <path
         d="m 66.814312,871.43243 0,1.98047 -0.539063,0 0,-1.96289 c -2e-6,-0.31054 -0.06055,-0.54296 -0.18164,-0.69726 -0.121096,-0.1543 -0.302737,-0.23145 -0.544922,-0.23145 -0.291017,0 -0.520509,0.0928 -0.688477,0.27832 -0.16797,0.18555 -0.251954,0.43848 -0.251953,0.75879 l 0,1.85449 -0.541992,0 0,-3.28125 0.541992,0 0,0.50977 c 0.128905,-0.19726 0.280272,-0.34472 0.454102,-0.44238 0.175779,-0.0977 0.377928,-0.14649 0.606445,-0.14649 0.376951,0 0.662107,0.11719 0.855469,0.35156 0.193356,0.23243 0.290036,0.5752 0.290039,1.02832"
         style="font-size:6px"
         id="path3431"
         inkscape:connector-curvature="0" />
      <path
         d="m 70.540874,869.18243 0,0.57715 c -0.224612,-0.10742 -0.436526,-0.18749 -0.635742,-0.24023 -0.199221,-0.0527 -0.391603,-0.0791 -0.577148,-0.0791 -0.322267,0 -0.571291,0.0625 -0.74707,0.1875 -0.17383,0.125 -0.260744,0.30273 -0.260743,0.5332 -10e-7,0.19336 0.05762,0.33985 0.172852,0.43945 0.117186,0.0977 0.337889,0.17676 0.662109,0.23731 l 0.357422,0.0732 c 0.441404,0.084 0.766599,0.23242 0.975586,0.44531 0.210934,0.21094 0.316403,0.49414 0.316406,0.84961 -3e-6,0.42383 -0.142581,0.74512 -0.427734,0.96387 -0.283206,0.21875 -0.699221,0.32812 -1.248047,0.32812 -0.207033,0 -0.427736,-0.0234 -0.662109,-0.0703 -0.232423,-0.0469 -0.473634,-0.11621 -0.723633,-0.20801 l 0,-0.60937 c 0.240234,0.13476 0.475585,0.23633 0.706055,0.30469 0.230467,0.0684 0.457029,0.10254 0.679687,0.10254 0.337889,0 0.598631,-0.0664 0.782227,-0.19922 0.183591,-0.13282 0.275387,-0.32227 0.27539,-0.56836 -3e-6,-0.21485 -0.06641,-0.38281 -0.199218,-0.50391 -0.130862,-0.12109 -0.346682,-0.21191 -0.647461,-0.27246 l -0.360352,-0.0703 c -0.441407,-0.0879 -0.760743,-0.22559 -0.958008,-0.41309 -0.197266,-0.1875 -0.295899,-0.44824 -0.295898,-0.78223 -10e-7,-0.38671 0.135741,-0.6914 0.407226,-0.91406 0.273437,-0.22265 0.649413,-0.33398 1.12793,-0.33398 0.205076,0 0.41406,0.0186 0.626953,0.0557 0.212888,0.0371 0.430661,0.0928 0.65332,0.16699"
         style="font-size:6px"
         id="path3433"
         inkscape:connector-curvature="0" />
      <path
         d="m 74.065289,870.25763 0,0.50391 c -0.152347,-0.084 -0.305667,-0.14649 -0.459961,-0.1875 -0.152346,-0.043 -0.306643,-0.0644 -0.462891,-0.0645 -0.349611,10e-6 -0.621095,0.11133 -0.814453,0.33399 -0.193361,0.2207 -0.29004,0.53125 -0.290039,0.93164 -10e-7,0.40039 0.09668,0.71191 0.290039,0.93457 0.193358,0.2207 0.464842,0.33105 0.814453,0.33105 0.156248,0 0.310545,-0.0205 0.462891,-0.0615 0.154294,-0.043 0.307614,-0.10645 0.459961,-0.19043 l 0,0.49805 c -0.150394,0.0703 -0.306644,0.12304 -0.46875,0.1582 -0.160159,0.0352 -0.331057,0.0527 -0.512696,0.0527 -0.494142,0 -0.88672,-0.15527 -1.177734,-0.46582 -0.291016,-0.31054 -0.436524,-0.72949 -0.436524,-1.25683 0,-0.53516 0.146484,-0.95605 0.439454,-1.2627 0.29492,-0.30664 0.69824,-0.45996 1.20996,-0.45996 0.166014,0 0.328123,0.0176 0.486329,0.0527 0.1582,0.0332 0.31152,0.084 0.459961,0.15234"
         style="font-size:6px"
         id="path3435"
         inkscape:connector-curvature="0" />
      <path
         d="m 76.910015,870.63556 c -0.06055,-0.0352 -0.126955,-0.0605 -0.199219,-0.0762 -0.07031,-0.0176 -0.148439,-0.0264 -0.234375,-0.0264 -0.304689,0 -0.539064,0.0996 -0.703125,0.29883 -0.16211,0.19727 -0.243165,0.48145 -0.243164,0.85254 l 0,1.72851 -0.541992,0 0,-3.28125 0.541992,0 0,0.50977 c 0.11328,-0.19922 0.260741,-0.34668 0.442383,-0.44238 0.181639,-0.0977 0.402342,-0.14649 0.662109,-0.14649 0.03711,0 0.07812,0.003 0.123047,0.009 0.04492,0.004 0.09472,0.0108 0.149414,0.0205 l 0.0029,0.55371"
         style="font-size:6px"
         id="path3437"
         inkscape:connector-curvature="0" />
      <path
         d="m 77.481304,870.13165 0.539063,0 0,3.28125 -0.539063,0 0,-3.28125 m 0,-1.27734 0.539063,0 0,0.68262 -0.539063,0 0,-0.68262"
         style="font-size:6px"
         id="path3439"
         inkscape:connector-curvature="0" />
      <path
         d="m 79.666851,872.92072 0,1.74023 -0.541992,0 0,-4.5293 0.541992,0 0,0.49805 c 0.11328,-0.19531 0.255858,-0.33984 0.427734,-0.43359 0.173827,-0.0957 0.380858,-0.14356 0.621094,-0.14356 0.398435,0 0.721677,0.15821 0.969727,0.47461 0.249996,0.31641 0.374996,0.73242 0.375,1.24805 -4e-6,0.51562 -0.125004,0.93164 -0.375,1.24804 -0.24805,0.31641 -0.571292,0.47461 -0.969727,0.47461 -0.240236,0 -0.447267,-0.0469 -0.621094,-0.14062 -0.171876,-0.0957 -0.314454,-0.24121 -0.427734,-0.43652 m 1.833984,-1.14551 c -3e-6,-0.39648 -0.08203,-0.70703 -0.246093,-0.93164 -0.162112,-0.22656 -0.385745,-0.33984 -0.670899,-0.33985 -0.285158,10e-6 -0.509767,0.11329 -0.673828,0.33985 -0.16211,0.22461 -0.243165,0.53516 -0.243164,0.93164 -10e-7,0.39648 0.08105,0.70801 0.243164,0.93457 0.164061,0.22461 0.38867,0.33691 0.673828,0.33691 0.285154,0 0.508787,-0.1123 0.670899,-0.33691 0.164059,-0.22656 0.24609,-0.53809 0.246093,-0.93457"
         style="font-size:6px"
         id="path3441"
         inkscape:connector-curvature="0" />
      <path
         d="m 83.487164,869.20001 0,0.93164 1.110351,0 0,0.41895 -1.110351,0 0,1.78125 c -2e-6,0.26758 0.03613,0.43945 0.108398,0.51562 0.07422,0.0762 0.223631,0.11426 0.448242,0.11426 l 0.553711,0 0,0.45117 -0.553711,0 c -0.416017,0 -0.703126,-0.0772 -0.861328,-0.23144 -0.158204,-0.15625 -0.237305,-0.43945 -0.237305,-0.84961 l 0,-1.78125 -0.395507,0 0,-0.41895 0.395507,0 0,-0.93164 0.541993,0"
         style="font-size:6px"
         id="path3443"
         inkscape:connector-curvature="0" />
    </g>
    <path
       style="font-size:medium;font-style:normal;font-variant:normal;font-weight:normal;font-stretch:normal;text-indent:0;text-align:start;text-decoration:none;line-height:normal;letter-spacing:normal;word-spacing:normal;text-transform:none;direction:ltr;block-progression:tb;writing-mode:lr-tb;text-anchor:start;baseline-shift:baseline;color:#000000;fill:#000000;fill-opacity:1;stroke:none;stroke-width:1px;marker:none;visibility:visible;display:inline;overflow:visible;enable-background:accumulate;font-family:Sans;-inkscape-font-specification:Sans"
       d="M 128.5625 184.59375 L 128.59375 194.3125 C 128.43517 194.34638 128.31291 194.35984 127.96875 194.40625 L 125.125 194.40625 L 123.75 194.375 L 124.78125 195.28125 L 128.6875 198.625 L 128.6875 198.71875 L 129.46875 198.15625 L 133.53125 195.34375 L 134.84375 194.4375 L 133.25 194.4375 L 130.28125 194.4375 C 129.90702 194.36971 129.76521 194.35271 129.59375 194.3125 L 129.5625 184.59375 L 128.5625 184.59375 z "
       transform="translate(0,652.36218)"
       id="path3870-0-80" />
    <path
       inkscape:connector-curvature="0"
       style="font-size:medium;font-style:normal;font-variant:normal;font-weight:normal;font-stretch:normal;text-indent:0;text-align:start;text-decoration:none;line-height:normal;letter-spacing:normal;word-spacing:normal;text-transform:none;direction:ltr;block-progression:tb;writing-mode:lr-tb;text-anchor:start;baseline-shift:baseline;color:#000000;fill:#000000;fill-opacity:1;stroke:none;stroke-width:1px;marker:none;visibility:visible;display:inline;overflow:visible;enable-background:accumulate;font-family:Sans;-inkscape-font-specification:Sans"
       d="m 253.07143,797.52959 0,1.59375 0.0312,3.5625 c -0.40994,0 -0.79299,0.0441 -1.1875,0.0312 l -42.125,0.3438 0,1 42.15625,-0.34375 0,-0.0312 c 0.35891,-0.006 0.70332,0.0283 1.125,0.0312 l -0.0312,3.53125 -0.0312,1.375 0.90625,-1.03125 3.34375,-3.90625 0.0937,0 -0.5625,-0.78125 -2.8125,-4.0625 -0.90625,-1.3125 z"
       id="path3868-4" />
    <rect
       style="fill:#ffffff"
       id="rect3529"
       width="53.57143"
       height="20.714285"
       x="208.57143"
       y="915.21936" />
    <rect
       style="fill:#ffffff;stroke:#000000;stroke-linejoin:round;stroke-opacity:1;opacity:0"
       id="rect4299"
       width="68.571426"
       height="29.285715"
       x="202.14287"
       y="886.64789" />
    <rect
       style="fill:#ffffff;stroke:#000000;stroke-width:0.68805772;stroke-linejoin:round;stroke-opacity:1"
       id="rect3005-6"
       width="55.311943"
       height="20.847656"
       x="258.59402"
       y="799.43842" />
    <text
       xml:space="preserve"
       style="font-size:9px;font-style:normal;font-weight:normal;line-height:125%;letter-spacing:0px;word-spacing:0px;fill:#000000;fill-opacity:1;stroke:none;font-family:Sans"
       x="264.64285"
       y="808.07648"
       id="text4337"
       sodipodi:linespacing="125%"><tspan
         sodipodi:role="line"
         id="tspan4339"
         x="264.64285"
         y="808.07648"
         style="font-size:6px">StrAppsInstall</tspan><tspan
         sodipodi:role="line"
         x="264.64285"
         y="815.57648"
         id="tspan4341"
         style="font-size:6px">Add --upgrade</tspan></text>
    <rect
       style="fill:#ffffff;stroke:#000000;stroke-width:0.68805772;stroke-linejoin:round;stroke-opacity:1"
       id="rect3005-6-3"
       width="55.311943"
       height="20.847656"
       x="188.05833"
       y="860.15259" />
    <text
       xml:space="preserve"
       style="font-size:9px;font-style:normal;font-weight:normal;line-height:125%;letter-spacing:0px;word-spacing:0px;fill:#000000;fill-opacity:1;stroke:none;font-family:Sans"
       x="191.42859"
       y="868.43359"
       id="text4361"
       sodipodi:linespacing="125%"><tspan
         sodipodi:role="line"
         id="tspan4363"
         x="191.42859"
         y="868.43359"
         style="font-size:6px">StrAppsInstall</tspan><tspan
         sodipodi:role="line"
         x="191.42859"
         y="875.93359"
         id="tspan4365"
         style="font-size:6px">with pip only</tspan></text>
    <path
       style="font-size:medium;font-style:normal;font-variant:normal;font-weight:normal;font-stretch:normal;text-indent:0;text-align:start;text-decoration:none;line-height:normal;letter-spacing:normal;word-spacing:normal;text-transform:none;direction:ltr;block-progression:tb;writing-mode:lr-tb;text-anchor:start;baseline-shift:baseline;color:#000000;fill:#000000;fill-opacity:1;stroke:none;stroke-width:1px;marker:none;visibility:visible;display:inline;overflow:visible;enable-background:accumulate;font-family:Sans;-inkscape-font-specification:Sans"
       d="m 206.97544,855.70163 -1.59375,0 -2.96875,0 c -2.11391,-0.38292 -0.30886,-0.30138 -2.3125,-0.0312 l -2.84375,0 -1.375,-0.0312 1.03125,0.90625 3.90625,3.34375 0,0.0937 0.78125,-0.5625 4.0625,-2.8125 z"
       id="path3870-0-3-3"
       inkscape:connector-curvature="0"
       sodipodi:nodetypes="cccccccccccc" />
    <path
       style="fill:none;stroke:#000000;stroke-width:1px;stroke-linecap:butt;stroke-linejoin:miter;stroke-opacity:1"
       d="m 201.21691,855.53484 c -0.0272,-10.574 -0.0545,-35.87083 -0.0817,-42.52556"
       id="path3156-9"
       inkscape:connector-curvature="0"
       sodipodi:nodetypes="cc" />
  </g>
</svg>
